<?xml version="1.0" encoding="UTF-8"?>
<svg width="95px" height="100px" viewBox="0 0 95 100" version="1.1" xmlns="http://www.w3.org/2000/svg" xmlns:xlink="http://www.w3.org/1999/xlink">
    <!-- Generator: Sketch 63 (92445) - https://sketch.com -->
    <title>-rengongzhineng</title>
    <desc>Created with Sketch.</desc>
    <g id="页面-1" stroke="none" stroke-width="1" fill="none" fill-rule="evenodd">
        <g id="首页" transform="translate(-393.000000, -942.000000)" fill="#0081CB" fill-rule="nonzero">
            <g id="1" transform="translate(240.000000, 755.000000)">
                <g id="-rengongzhineng" transform="translate(153.000000, 187.000000)">
                    <path d="M64.056686,15.7697432 C64.0511194,13.9844261 62.7854232,12.4515516 61.0334065,12.1082952 C59.2813897,11.7650388 57.5308286,12.7069661 56.8519891,14.3581973 C56.1731496,16.0094286 56.7550263,17.910247 58.2418689,18.8985217 C59.7287115,19.8867963 61.7065703,19.6873833 62.9662132,18.4222005 C63.6674397,17.71789 64.0597567,16.7636055 64.056686,15.7697432 L64.056686,15.7697432 Z M60.2842841,88.4176029 L61.2568518,86.7966567 L59.3117164,86.7966567 L60.2842841,88.4176029 L60.2842841,88.4176029 Z M45.8725991,88.7712639 L47.8177345,88.7712639 L46.8451668,87.1503177 L45.8725991,88.7712639 Z M52.916347,68.730475 L54.8614823,68.730475 L53.8889146,67.1095288 L52.916347,68.730475 L52.916347,68.730475 Z M74.4896668,29.4741062 C75.948329,30.8700582 78.247504,30.8700582 79.7061662,29.4741062 C80.653798,28.5264744 81.0238903,27.1452711 80.677033,25.850782 C80.3301757,24.556293 79.3190647,23.545182 78.0245757,23.1983247 C76.7300867,22.8514674 75.3488833,23.2215597 74.4012516,24.1691914 C73.7073301,24.8832834 73.326544,25.8444411 73.3431369,26.8400208 C73.3597299,27.8356006 73.7723343,28.783535 74.4896668,29.4741062 L74.4896668,29.4741062 Z M46.1378448,24.2576066 C44.6744528,22.8006424 42.3075685,22.8041155 40.8484586,24.265368 C39.3893486,25.7266206 39.3893486,28.0935074 40.8484586,29.55476 C42.3075685,31.0160126 44.6744528,31.0194856 46.1378448,29.5625214 C47.5753773,28.0863747 47.5753773,25.7337533 46.1378448,24.2576066 L46.1378448,24.2576066 Z M71.9550964,46.8624377 C73.6419255,46.836785 73.9363788,46.4671199 74.6427133,45.7441004 C75.3490477,45.0210809 75.7301326,44.0413745 75.6980085,43.0311104 L75.6980085,33.1580747 C74.5089102,32.8967706 73.4226713,32.2921659 72.5740031,31.4192415 C71.111362,29.9466418 70.4543092,27.8558241 70.8116653,25.8112788 C71.1690214,23.7667334 72.4963395,22.0227541 74.3717798,21.1336014 C69.6779255,8.80148187 58.0571986,0.477744404 44.8705597,0.00235771484 L43.9569354,0.00235771484 C24.6223668,-0.216595834 8.54213036,14.8245301 7.47091094,34.1306424 L7.47091094,41.8227687 C7.48707486,41.9795358 7.48707486,42.1375496 7.47091094,42.2943167 C3.94257358,51.3489656 1.64260992,57.251282 0.571019952,60.0012658 C0.442079675,60.3321608 -4.61297667e-14,60.9999975 1.39187186,61.6942932 C4.72709806,61.9086868 8.09932095,61.9061648 11.5085405,61.6867271 C12.2309003,61.6357417 12.8606119,62.1736203 12.9231844,62.8950688 L12.9231844,75.1847879 C12.8727383,77.0569944 13.5731209,78.8716221 14.8683198,80.2244568 C16.2179826,81.5465075 18.0491498,82.259811 19.9374605,82.199064 L30.9304227,82.199064 C33.9983205,82.2022571 36.6708853,84.2917169 37.4142073,87.2682047 L40.3613821,98.7327148 L45.5189381,98.7327148 L45.5189381,91.3647777 L43.544331,91.3647777 C43.0733882,91.3505751 42.6435917,91.0928791 42.4091855,90.6841708 C42.1747792,90.2754624 42.1693828,89.7743605 42.3949328,89.3606988 L45.5189381,84.0852559 L45.5189381,60.8320464 C45.5186378,58.6772682 44.1787941,56.7497738 42.1591588,55.9986797 L33.3176343,52.6389004 C30.2023223,51.5468982 28.1204885,48.6015764 28.1306065,45.300435 L28.1306065,43.8268476 C27.1079205,43.5677864 26.1786181,43.0265443 25.4486774,42.2648449 C23.3442122,40.1585851 22.9716632,36.8786825 24.5501319,34.3540952 C26.1286007,31.8295079 29.2404571,30.7281892 32.0555736,31.6978405 C34.8706902,32.6674917 36.6442455,35.4515634 36.3331861,38.4127028 C36.0221267,41.3738423 33.7087525,43.7285935 30.7535922,44.0920934 L30.7535922,45.300435 C30.7780224,47.4317299 32.0966227,49.3337817 34.0838998,50.10433 L43.1022548,53.4641093 C46.1498014,54.6062704 48.1696131,57.518557 48.1713955,60.7731029 L48.1713955,84.3505016 L51.2659291,89.4785858 C51.4490158,89.8629208 51.4364729,90.3117841 51.2322091,90.685295 C51.0279453,91.058806 50.6567938,91.3115552 50.2344179,91.3647777 L48.1713955,91.3647777 L48.1713955,98.6442996 L52.562686,98.6442996 L52.562686,71.3829323 L50.5880788,71.3829323 C50.1108987,71.3802178 49.6719648,71.1213594 49.4386807,70.7050821 C49.1902597,70.2873228 49.1902597,69.767141 49.4386807,69.3493816 L52.3858555,64.3097127 L52.3858555,53.3462223 C52.3858555,51.2302387 50.6705118,49.514895 48.5545282,49.514895 C46.8298209,49.5227347 45.1730635,48.8430861 43.9507363,47.6262898 C42.7284092,46.4094936 42.041254,44.7558355 42.0412718,43.0311104 L42.0412718,33.1580747 C40.8084145,32.9474116 39.6793622,32.3362732 38.8288513,31.4192415 C36.8921177,29.8898154 36.0138185,27.3788309 36.5750027,24.975676 C37.1361869,22.5725212 39.035735,20.710219 41.4495303,20.1967274 C43.8633255,19.6832358 46.3564273,20.6110804 47.8472063,22.577717 C50.330856,25.0823335 50.330856,29.1209273 47.8472063,31.6255438 C46.9713517,32.4659795 45.8798527,33.0474322 44.6937292,33.3054334 L44.6937292,43.0311104 C44.7099185,45.1518524 46.4337244,46.8624995 48.5545282,46.8624377 C52.1287183,46.8785742 55.0221763,49.7720322 55.0383129,53.3462223 L55.0383129,64.0149952 L58.1917899,69.3493816 C58.4402109,69.767141 58.4402109,70.2873228 58.1917899,70.7050821 C57.9403229,71.1174698 57.4958296,71.3730535 57.01292,71.3829323 L55.0383129,71.3829323 L55.0383129,98.7032431 L59.0759424,98.7032431 L59.0759424,91.3647777 L55.8340501,86.1482782 C55.6085001,85.7346165 55.6138966,85.2335147 55.8483028,84.8248063 C56.0827091,84.416098 56.5125055,84.158402 56.9834482,84.1441994 L59.0759424,84.1441994 L59.0759424,22.0177538 C57.8766531,21.7550224 56.7743883,21.1630654 55.8929936,20.3083924 C53.3968317,17.810348 53.397849,13.7619005 55.8952661,11.265111 C58.3926831,8.76832139 62.4411307,8.76832139 64.9385478,11.265111 C67.4359649,13.7619005 67.4369822,17.810348 64.9408203,20.3083924 C64.0485183,21.1640473 62.9365753,21.7557234 61.7283997,22.0177538 L61.7283997,84.1441994 L63.7030069,84.1441994 C64.180187,84.1469139 64.619121,84.4057724 64.8524051,84.8220496 C65.1021859,85.2288432 65.1021859,85.7414846 64.8524051,86.1482782 L61.6105128,91.3647777 L61.6105128,98.7621865 L65.5891988,98.7621865 L65.5891988,67.787379 L62.288363,62.3351056 C62.051455,61.924769 62.051455,61.4192134 62.288363,61.0088769 C62.5246551,60.5993838 62.9650803,60.3509388 63.4377611,60.3604984 L65.6481423,60.3604984 L65.6481423,53.3462223 C65.613691,51.6389377 66.2730056,49.9906513 67.4753907,48.7781013 C68.6592081,47.5761749 70.2682673,46.8880904 71.9550964,46.8624377 Z M66.6796535,64.6044302 L67.6522212,62.983484 L65.7070857,62.983484 L66.6796535,64.6044302 L66.6796535,64.6044302 Z M93.3515857,35.1032101 C92.6569311,34.3875902 91.6962504,33.9926438 90.6991284,34.0127554 C88.9286423,34.0001725 87.3915272,35.2298646 87.0151599,36.9599302 C86.6434109,38.7260893 87.5849985,40.5059987 89.2542111,41.1924714 C90.9234236,41.8789441 92.8447914,41.2764406 93.8231337,39.7597463 C94.7754756,38.2885832 94.5795265,36.3535851 93.3515857,35.1032101 L93.3515857,35.1032101 Z M32.5513688,35.1032101 C31.4828952,34.0275244 29.8710318,33.7026757 28.4693105,34.2805278 C27.0675892,34.8583798 26.1529313,36.2247734 26.1529313,37.7409315 C26.1529313,39.2570897 27.0675892,40.6234832 28.4693105,41.2013353 C29.8710318,41.7791874 31.4828952,41.4543387 32.5513688,40.378653 C34.0012175,38.9190182 34.0012175,36.5628449 32.5513688,35.1032101 L32.5513688,35.1032101 Z M90.0212782,45.300435 C89.9956928,47.4491985 88.6478017,49.3596876 86.6320271,50.10433 L77.5252568,53.4641093 C74.459956,54.5939558 72.4166438,57.5062629 72.3971727,60.7731029 L72.3971727,70.7345538 L69.2731673,75.9510533 C69.0476172,76.364715 69.0530137,76.8658169 69.28742,77.2745253 C69.5218262,77.6832337 69.9516227,77.9409297 70.4225655,77.9551322 L72.3971727,77.9551322 L72.3971727,99.9705282 L75.04963,99.9705282 L75.04963,77.984604 L77.0242371,77.984604 C77.5031472,77.9882404 77.9450719,77.7276181 78.1736354,77.3067537 C78.4105433,76.8964171 78.4105433,76.3908617 78.1736354,75.9805251 L75.04963,70.7345538 L75.04963,60.8320464 C75.0544857,58.6697454 76.4076353,56.7400364 78.4388811,55.9986797 L87.5456514,52.6389004 C90.610151,51.4912222 92.6495979,48.5727033 92.6737355,45.300435 L92.6737355,42.5006189 L90.0212782,42.5006189 L90.0212782,45.300435 Z" id="形状"></path>
                </g>
            </g>
        </g>
    </g>
</svg>