<?xml version="1.0" encoding="UTF-8"?>
<svg width="100px" height="100px" viewBox="0 0 100 100" version="1.1" xmlns="http://www.w3.org/2000/svg" xmlns:xlink="http://www.w3.org/1999/xlink">
    <!-- Generator: Sketch 63 (92445) - https://sketch.com -->
    <title>05大数据资源</title>
    <desc>Created with Sketch.</desc>
    <g id="页面-1" stroke="none" stroke-width="1" fill="none" fill-rule="evenodd">
        <g id="首页" transform="translate(-910.000000, -1289.000000)" fill="#34B9DF" fill-rule="nonzero">
            <g id="1" transform="translate(240.000000, 755.000000)">
                <g id="05大数据资源" transform="translate(670.000000, 534.000000)">
                    <path d="M78.0357143,61.8861607 C90.15625,61.8861607 100,52.890625 99.9223368,41.8973214 C99.9223368,37.7232143 98.5825893,33.8727679 96.0602679,30.5022321 C96.6852679,28.5714286 97.0089286,26.5736607 97.0089286,24.4866071 C97.0089286,12.4330357 86.2276786,2.56696429 73.0022321,2.56696429 C69.140625,2.56696429 65.3683036,3.37053571 61.9866071,4.97767857 C57.5,1.76339286 51.8303571,-3.96508223e-15 46.0825893,-3.96508223e-15 C32.3883929,-3.96508223e-15 21.1272321,9.70982143 20.3459821,21.9977679 C9.00669643,22.7232143 0.0334821429,31.3950893 0.0334821429,41.9084821 C0.0334821429,52.9017857 9.87723214,61.8973214 21.9977679,61.8973214 L30.0446429,61.8973214 L30.0446429,73.6495536 C29.8883929,78.2589286 29.5535714,85.1116071 26.9642857,86.5736607 C25.546875,84.0848214 23.5267857,82.7455357 20.1674107,82.7455357 C15.5691964,82.7455357 11.796875,86.5959821 11.796875,91.3169643 C11.796875,96.0491071 15.5133929,99.8995536 20.1116071,99.8995536 C23.9955357,99.8995536 27.2209821,97.3883929 28.1473214,93.6830357 C34.7991071,89.3973214 35.2232143,82.890625 35.390625,73.6495536 L35.390625,61.8861607 L46.6517857,61.8861607 L46.6517857,82.734375 C42.5334821,83.9397321 40.7924107,87.1875 40.7924107,91.015625 C40.7924107,95.859375 44.4642857,99.8102679 49.1741071,99.8102679 C53.8839286,99.8102679 57.7566964,95.8705357 57.7566964,91.015625 C57.7566964,87.1986607 54.8772321,83.9508929 52.1316964,82.734375 L52.1316964,61.8861607 L64.5424107,61.8861607 L64.5424107,73.6383929 C64.7209821,82.8794643 65.1339286,89.3861607 71.7857143,93.671875 C72.7120536,97.3772321 75.9375,99.8883929 79.8214286,99.8883929 C84.4196429,99.8883929 88.1361607,96.0379464 88.1361607,91.3058036 C88.1361607,86.5736607 84.3638393,82.7232143 79.765625,82.7232143 C76.40625,82.7232143 74.3861607,84.0625 72.96875,86.5513393 C70.390625,85.0892857 70.0558036,78.2366071 69.8883929,73.6272321 L69.8883929,61.8861607 L78.0357143,61.8861607 Z M20.1674107,94.1741071 C18.6383929,94.1741071 17.3883929,92.890625 17.3883929,91.3169643 C17.3883929,89.7433036 18.6383929,88.4598214 20.1674107,88.4598214 C21.6964286,88.4598214 22.9464286,89.7433036 22.9464286,91.3169643 C22.9575893,92.8794643 21.7075893,94.1741071 20.1674107,94.1741071 L20.1674107,94.1741071 Z M79.7879464,88.4486607 C81.3169643,88.4486607 82.5669643,89.7321429 82.5669643,91.3058036 C82.5669643,92.8794643 81.3169643,94.1629464 79.7879464,94.1629464 C78.2477679,94.1629464 77.0089286,92.8794643 77.0089286,91.3058036 C76.9977679,89.7321429 78.2477679,88.4486607 79.7879464,88.4486607 Z M32.6785714,55.3683036 C27.9352679,55.3683036 24.0959821,51.4508929 24.0959821,46.6183036 C24.0959821,41.7857143 27.9352679,37.8683036 32.6785714,37.8683036 C37.421875,37.8683036 41.2611607,41.7857143 41.2611607,46.6183036 C41.25,51.4508929 37.4107143,55.3683036 32.6785714,55.3683036 Z M49.296875,39.3191964 C44.5535714,39.3191964 40.7142857,35.4017857 40.7142857,30.5691964 C40.7142857,25.7366071 44.5535714,21.8191964 49.296875,21.8191964 C54.0290179,21.8191964 57.8794643,25.7366071 57.8794643,30.5691964 C57.8794643,35.4017857 54.0401786,39.3191964 49.296875,39.3191964 L49.296875,39.3191964 Z M67.2767857,55.3683036 C62.5334821,55.3683036 58.6941964,51.4508929 58.6941964,46.6183036 C58.6941964,41.7857143 62.5334821,37.8683036 67.2767857,37.8683036 C72.0089286,37.8683036 75.859375,41.7857143 75.859375,46.6183036 C75.859375,51.4508929 72.0089286,55.3683036 67.2767857,55.3683036 Z M49.1294643,26.9866071 C47.4665179,26.9866071 46.1272321,28.3705357 46.1272321,30.0669643 C46.1272321,31.7745536 47.4665179,33.1584821 49.1294643,33.1584821 C50.7924107,33.1584821 52.1316964,31.7745536 52.1316964,30.0669643 C52.1316964,28.3705357 50.7924107,26.9866071 49.1294643,26.9866071 L49.1294643,26.9866071 Z" id="形状"></path>
                </g>
            </g>
        </g>
    </g>
</svg>