<?xml version="1.0" encoding="UTF-8"?>
<svg width="26px" height="20px" viewBox="0 0 26 20" version="1.1" xmlns="http://www.w3.org/2000/svg" xmlns:xlink="http://www.w3.org/1999/xlink">
    <!-- Generator: Sketch 63 (92445) - https://sketch.com -->
    <title>email marketing_filled</title>
    <desc>Created with Sketch.</desc>
    <g id="页面-1" stroke="none" stroke-width="1" fill="none" fill-rule="evenodd">
        <g id="加入我们" transform="translate(-845.000000, -279.000000)" fill-rule="nonzero">
            <g id="banner">
                <g id="编组" transform="translate(844.000000, 274.000000)">
                    <g id="email-marketing_filled" transform="translate(0.000000, 1.000000)">
                        <rect id="矩形" fill="#000000" opacity="0" x="0" y="0" width="28" height="28"></rect>
                        <path d="M23.1875,4.8125 L4.8125,4.8125 C3.12101563,4.8125 1.75,6.18378906 1.75,7.875 L1.75,12.9792578 C1.75,13.5428125 2.20691406,14 2.77074219,14 L6.85398438,14 C7.4178125,14 7.87472656,14.4571875 7.87472656,15.0207422 C7.87472656,15.5842969 7.4178125,16.0414844 6.85398438,16.0414844 L2.77074219,16.0414844 C2.20691406,16.0417578 1.75,16.4986719 1.75,17.0625 C1.75,17.6263281 2.20691406,18.0832422 2.77074219,18.0832422 L4.8125,18.0832422 C5.37632812,18.0832422 5.83324219,18.5404297 5.83324219,19.1039844 C5.83324219,19.6675391 5.37632812,20.125 4.8125,20.125 L3.04636719,20.125 C2.48253906,20.1208984 2.02234375,20.5748047 2.01851563,21.1386328 C2.01742937,21.3005733 2.0548228,21.460456 2.12761719,21.6051172 C2.66738281,22.5826562 3.69605469,23.1888672 4.8125,23.1875023 L23.1875,23.1875023 C24.8789844,23.1875023 26.25,21.8162109 26.25,20.125 L26.25,7.875 C26.25,6.18378906 24.8789844,4.8125 23.1875,4.8125 Z M23.8407422,8.77324219 L15.96,15.3269922 C14.8244141,16.2728125 13.1755859,16.2728125 12.04,15.3269922 L4.15925781,8.77324219 C3.72503906,8.41230469 3.66570312,7.7678125 4.02664062,7.33386719 C4.38757812,6.89964844 5.03179687,6.84003906 5.46601563,7.20097656 L13.3467578,13.7547266 C13.7251953,14.07 14.2748047,14.07 14.6535156,13.7547266 L22.5342578,7.20097656 C22.9684766,6.84003906 23.6129688,6.89964844 23.9736328,7.33386719 C24.3342969,7.7678125 24.2749609,8.41230469 23.8407422,8.77324219 Z" id="形状" fill="#FFFFFF"></path>
                    </g>
                </g>
            </g>
        </g>
    </g>
</svg>