<?xml version="1.0" encoding="UTF-8"?>
<svg width="100px" height="100px" viewBox="0 0 100 100" version="1.1" xmlns="http://www.w3.org/2000/svg" xmlns:xlink="http://www.w3.org/1999/xlink">
    <!-- Generator: Sketch 63 (92445) - https://sketch.com -->
    <title>guinasuanfa</title>
    <desc>Created with Sketch.</desc>
    <g id="页面-1" stroke="none" stroke-width="1" fill="none" fill-rule="evenodd">
        <g id="首页" transform="translate(-390.000000, -1305.000000)" fill="#00B2B0" fill-rule="nonzero">
            <g id="1" transform="translate(240.000000, 755.000000)">
                <g id="guinasuanfa" transform="translate(150.000000, 550.000000)">
                    <path d="M45.8267405,69.6212421 L45.8267405,53.7984573 C45.8267405,51.8997231 44.5609177,50.0642801 42.6621835,50.0642801 L28.1052215,50.0642801 C27.1558544,50.0642801 26.3330696,49.8111155 25.6368671,49.2414953 L24.4343354,48.0389636 C23.8647152,47.3427611 23.6115506,46.5832674 23.6115506,45.6339003 L23.6115506,31.0769383 C23.6115506,29.1782041 21.8393987,27.8490902 19.9406646,27.8490902 L4.11787975,27.8490902 C2.21914557,27.8490902 0.0039556962,29.114913 0.0039556962,31.0769383 L0.0039556962,46.8997231 C0.0039556962,48.7984573 2.21914557,50.0642801 4.11787975,50.0642801 L19.8773734,50.0642801 C20.8267405,50.0642801 21.6495253,50.5706092 22.3457278,51.2035206 L22.5356013,51.2668117 C23.1052215,51.9630142 23.6748418,52.9756725 23.6748418,53.8617484 L23.6748418,69.6845332 C23.6748418,71.5832674 25.0672468,73.7351661 26.9026899,73.7351661 L42.7254747,73.7351661 C44.4976266,73.7351661 45.8267405,71.5832674 45.8267405,69.6212421 Z M97.2824367,50.0642801 L82.7254747,50.0642801 C81.7761076,50.0642801 80.8900316,49.6845332 80.2571203,49.0516218 L78.8647152,47.7857991 C78.1685127,47.0895965 77.7254747,46.2668117 77.7254747,45.3174446 L77.7254747,30.7604826 C77.7254747,28.8617484 76.3330696,27.7857991 74.3710443,27.7857991 L58.6115506,27.7857991 C56.7128165,27.7857991 55.5102848,28.9250396 55.5102848,30.7604826 L55.5102848,46.5832674 C55.5102848,48.4820016 56.7128165,50.0009889 58.6115506,50.0009889 L74.4343354,50.0009889 C75.3837025,50.0009889 76.2064873,50.4440269 76.9026899,51.0136472 L76.8393987,51.0136472 C77.5356013,51.7098497 77.7887658,52.5326345 77.7887658,53.4820016 L77.7887658,69.3047864 C77.7887658,71.2035206 79.4976266,72.2161788 81.3963608,72.2161788 L97.2191456,72.2161788 C99.1178797,72.2161788 99.9406646,71.2668117 99.9406646,69.3047864 L99.9406646,53.5452927 C100.003956,51.6465585 99.1178797,50.0642801 97.2824367,50.0642801 L97.2824367,50.0642801 Z M30.8267405,45.950356 L46.6495253,45.950356 C48.5482595,45.950356 49.8773734,44.0516218 49.8773734,42.2161788 L49.8773734,26.2668117 C49.8773734,25.3174446 50.3204114,24.4946598 51.0166139,23.7984573 L51.0799051,23.5452927 C51.7761076,22.8490902 52.5988924,22.2794699 53.5482595,22.2794699 L69.3710443,22.2794699 C71.2697785,22.2794699 73.4849684,21.2668117 73.4849684,19.3680775 L73.4849684,3.54529272 C73.4849684,1.64655854 71.2697785,0.0642800633 69.3710443,0.0642800633 L53.5482595,0.0642800633 C51.6495253,0.0642800633 49.8773734,1.58326741 49.8773734,3.54529272 L49.8773734,18.1022547 C49.8773734,19.0516218 49.6242089,19.8744066 48.9280063,20.5706092 L47.7254747,21.5832674 C47.0292722,22.2794699 46.2697785,22.3427611 45.3204114,22.3427611 L30.7634494,22.3427611 C28.8647152,22.3427611 27.5988924,24.3680775 27.5988924,26.393394 L27.5988924,42.2161788 C27.6621835,44.0516218 28.8647152,45.950356 30.8267405,45.950356 Z M69.8773734,54.2414953 L54.0545886,54.2414953 C52.1558544,54.2414953 49.9406646,56.1402294 49.9406646,57.9756725 L49.9406646,72.5326345 C49.9406646,73.4820016 49.8773734,74.3047864 49.244462,75.0009889 L48.1052215,76.5199763 C47.409019,77.2161788 46.7128165,77.7857991 45.7634494,77.7857991 L31.2064873,77.7857991 C29.3077532,77.7857991 27.5988924,78.7984573 27.5988924,80.6971915 L27.5988924,96.5199763 C27.5988924,98.4187104 29.244462,100.000989 31.2064873,100.000989 L47.0292722,100.000989 C48.9280063,100.000989 49.8773734,98.4820016 49.8773734,96.5199763 L49.8773734,80.7604826 C49.8773734,79.8111155 50.5735759,78.9883307 51.1431962,78.2921282 L51.3330696,78.5452927 C52.0292722,77.8490902 53.0419304,77.7857991 53.9280063,77.7857991 L69.7507911,77.7857991 C71.6495253,77.7857991 73.4216772,75.6339003 73.4216772,73.7351661 L73.4216772,57.9123813 C73.6115506,56.1402294 71.8393987,54.2414953 69.8773734,54.2414953 L69.8773734,54.2414953 Z" id="形状"></path>
                </g>
            </g>
        </g>
    </g>
</svg>