<?xml version="1.0" encoding="UTF-8"?>
<svg width="47px" height="48px" viewBox="0 0 47 48" version="1.1" xmlns="http://www.w3.org/2000/svg" xmlns:xlink="http://www.w3.org/1999/xlink">
    <!-- Generator: Sketch 63 (92445) - https://sketch.com -->
    <title>icon3</title>
    <desc>Created with Sketch.</desc>
    <g id="页面-1" stroke="none" stroke-width="1" fill="none" fill-rule="evenodd">
        <g id="5产品与展示" transform="translate(-1421.000000, -1144.000000)" fill="#666666" fill-rule="nonzero">
            <g id="2" transform="translate(244.000000, 953.000000)">
                <g id="编组-5" transform="translate(969.000000, 115.000000)">
                    <g id="icon3" transform="translate(208.000000, 76.000000)">
                        <g id="实施模块">
                            <path d="M40.9387306,4.84779793 L29.5107513,4.84779793 C28.8454663,2.08095855 26.3584197,0.0042746114 23.3926166,0.0042746114 C20.4268135,0.0042746114 17.9397668,2.07474093 17.2744819,4.84779793 L5.85893782,4.84779793 C2.63199482,4.84779793 0.00816062176,7.46541451 0.00816062176,10.6923575 L0.00816062176,41.9358808 C0.00816062176,43.490285 0.623704663,44.9762953 1.7242228,46.0705959 C2.82178131,47.1661638 4.30816672,47.7830697 5.85893782,47.786658 L23.3988342,47.786658 C24.1805033,47.7472322 24.7940465,47.1019633 24.7940465,46.3193005 C24.7940465,45.5366377 24.1805033,44.8913688 23.3988342,44.851943 L5.85893782,44.851943 C4.24235751,44.851943 2.93665803,43.5462435 2.93044041,41.9296632 L2.93044041,10.6923575 C2.93044041,9.08199482 4.24235751,7.77007772 5.85893782,7.77007772 L40.9449482,7.77007772 C42.5553109,7.77007772 43.867228,9.08199482 43.867228,10.6923575 L43.867228,24.3959845 C43.867228,25.2042746 44.5200777,25.863342 45.3221503,25.863342 C46.1304404,25.863342 46.7895078,25.2042746 46.7895078,24.3959845 L46.7895078,10.6923575 C46.7832902,7.46541451 44.1656736,4.84779793 40.9387306,4.84779793 Z M20.3459845,4.84779793 C20.909532,3.67737929 22.0935918,2.93311312 23.3926166,2.93277202 C24.6916414,2.93311312 25.8757012,3.67737929 26.4392487,4.84779793 L20.3459845,4.84779793 L20.3459845,4.84779793 Z" id="形状"></path>
                            <path d="M17.8091969,17.2146373 L37.332513,17.2146373 C38.1566477,17.2146373 38.8247409,16.5465441 38.8247409,15.7224093 C38.8247409,14.9016839 38.1532383,14.236399 37.332513,14.2301813 L17.8091969,14.2301813 C17.2597616,14.2054984 16.7412895,14.4850433 16.4599741,14.9576425 C16.1801813,15.4301813 16.1801813,16.0208549 16.4599741,16.4933938 C16.7397668,16.959715 17.255829,17.2395078 17.8091969,17.2146373 Z M7.96670984,12.5762953 L13.9418394,12.5762953 L13.9418394,18.8623057 L7.96670984,18.8623057 L7.96670984,12.5762953 L7.96670984,12.5762953 Z M26.8744819,25.7079016 C26.8744819,25.3099741 26.7190415,24.9306995 26.4392487,24.6509067 C26.159456,24.371114 25.7801813,24.2156736 25.3822539,24.2156736 L17.8091969,24.2156736 C17.2682642,24.1970207 16.7522021,24.4768135 16.4786269,24.9493523 C16.1988342,25.4156736 16.1988342,26.0001295 16.4786269,26.4664508 C16.7584197,26.932772 17.2682642,27.2125648 17.8091969,27.2001295 L25.3884715,27.2001295 C25.786399,27.2001295 26.1656736,27.0446891 26.4454663,26.7648964 C26.7190415,26.4851036 26.8806995,26.0996114 26.8744819,25.7079016 Z M7.96670984,22.5617876 L13.9418394,22.5617876 L13.9418394,28.8477979 L7.96670984,28.8477979 L7.96670984,22.5617876 Z M17.8091969,34.2011658 C16.9850621,34.2011658 16.3169689,34.869259 16.3169689,35.6933938 C16.3169689,36.5175285 16.9850621,37.1856218 17.8091969,37.1856218 L21.5957254,37.1856218 C22.3930348,37.1490404 23.0203983,36.4915415 23.0195604,35.6933938 C23.0195604,34.8975389 22.3915803,34.2384715 21.5957254,34.2011658 L17.8091969,34.2011658 L17.8091969,34.2011658 Z M7.96670984,32.5472798 L13.9418394,32.5472798 L13.9418394,38.8332902 L7.96670984,38.8332902 L7.96670984,32.5472798 L7.96670984,32.5472798 Z M44.7128238,36.9928756 C44.2775907,36.7255181 44.2900259,35.7742228 44.2154145,35.4944301 C44.1345855,35.1835492 44.2838083,34.4498705 44.7687824,33.8467617 C45.2661917,33.2312176 46.1055699,32.7524611 46.1117876,32.6591969 C46.1988342,31.7079016 45.9066062,30.6322539 44.8496114,29.8985751 C44.2340674,29.4695596 43.363601,30.4208549 42.3812176,30.4892487 C41.709715,30.5265544 41.2682642,29.9296632 41.1252591,29.8239637 C39.1169689,28.3690415 40.4599741,26.5721503 40.2734456,26.2550518 C40.1055699,25.9752591 38.7812176,24.9493523 37.5003886,25.2975389 C36.3003886,25.6084197 36.667228,27.1068653 35.7532383,27.7472798 C35.4547927,27.9524611 34.6154145,27.9835492 34.1242228,27.9213731 C32.4143782,27.7224093 32.1781088,25.5648964 30.9967617,25.8819948 C29.8465026,26.1990933 28.9014249,27.1130829 28.8330311,27.8529793 C28.7584197,28.6239637 29.6661917,29.1213731 29.628886,29.9296632 C29.6102332,30.3462435 29.1190415,30.8436528 28.9387306,31.1918394 C28.7832902,31.4716321 28.0993523,31.9068653 27.309715,31.9317358 C26.6693005,31.9503886 25.9542746,31.5773316 25.5190415,31.6830311 C25.2081606,31.7576425 24.6361399,32.3731865 24.5615285,32.9638601 C24.4744819,33.6664508 24.163601,34.3193005 24.6547927,35.040544 C25.1770725,35.8115285 25.8112694,35.4073834 26.5698187,36.1037565 C27.0547927,36.5576425 26.9615285,37.1047927 26.9988342,37.3410622 C27.0734456,37.8446891 26.9304404,38.7089378 26.4516839,39.2996114 C26.109715,39.7099741 25.3698187,39.9027202 25.2392487,40.3006477 C24.8475389,41.5690415 25.6682642,42.6819948 26.2278497,43.0985751 C26.986399,43.6830311 28.1677461,42.613601 29.1314767,42.5638601 C29.6599741,42.532772 30.0703368,42.9804404 30.3376943,43.3037565 C30.6858808,43.7203368 31.0465026,44.2426166 31.0465026,44.9389896 C31.0465026,45.4737047 30.7294041,46.132772 30.9221503,46.5928756 C31.2516839,47.3949482 32.5076425,47.7804404 33.4216321,47.7804404 C34.6029793,47.7804404 34.6154145,46.1887306 35.2744819,45.4301813 C35.7408031,44.8768135 36.3625648,45.0011658 36.5553109,44.9949482 C36.9470207,44.9762953 37.655829,45.0384715 38.2465026,45.5296632 C38.563601,45.7908031 38.7190415,46.505829 39.0237047,46.7110104 C39.6392487,47.1275907 40.2299223,47.1275907 40.5283679,46.9659326 C41.1812176,46.6239637 41.7967617,46.4063472 42.3252591,45.5794041 C42.6796632,45.0198187 41.6910622,44.2053109 41.6848446,43.2602332 C41.6786269,42.4146373 42.4433938,41.7306995 42.5926166,41.5130829 C42.7418394,41.2892487 43.5874352,40.959715 44.2527202,40.9845855 C44.9988342,41.0032383 45.6641192,41.2332902 45.7822539,41.1773316 C46.2547927,40.9410622 46.3169689,40.7047927 46.559456,40.1141192 C46.7832902,39.5669689 46.801943,39.225 46.801943,38.6218912 C46.7832902,37.7141192 45.521114,37.490285 44.7128238,36.9928756 Z M35.6351036,41.7306995 C32.7936528,41.7306995 30.4869171,39.4239637 30.4869171,36.582513 C30.4869171,33.7410622 32.7936528,31.4343264 35.6351036,31.4343264 C38.4765544,31.4343264 40.7832902,33.7348446 40.7895078,36.582513 C40.7832902,39.4239637 38.4765544,41.7306995 35.6351036,41.7306995 Z" id="形状"></path>
                        </g>
                    </g>
                </g>
            </g>
        </g>
    </g>
</svg>