<?xml version="1.0" encoding="UTF-8"?>
<svg width="100px" height="87px" viewBox="0 0 100 87" version="1.1" xmlns="http://www.w3.org/2000/svg" xmlns:xlink="http://www.w3.org/1999/xlink">
    <!-- Generator: Sketch 63 (92445) - https://sketch.com -->
    <title>ziyuan</title>
    <desc>Created with Sketch.</desc>
    <g id="页面-1" stroke="none" stroke-width="1" fill="none" fill-rule="evenodd">
        <g id="首页" transform="translate(-1430.000000, -948.000000)" fill="#009BC7" fill-rule="nonzero">
            <g id="1" transform="translate(240.000000, 755.000000)">
                <g id="ziyuan" transform="translate(1190.000000, 193.000000)">
                    <path d="M98.3782623,65.2019168 C95.5021421,58.2178853 87.8279581,54.3380835 80.4935116,56.1406333 C79.6250874,56.3536678 78.7765208,56.6407451 77.9571288,56.9987131 C73.3832919,58.99734 68.1416282,58.72555 63.7046569,56.440573 L63.0941001,56.1270439 C60.5159781,54.7981851 58.6940146,52.3307204 58.2601214,49.4633362 C58.1652364,48.8198759 58.0122136,48.1863422 57.8029319,47.5705132 C56.9888573,45.2605042 57.5044056,42.690213 59.1463508,40.8728317 L59.2220637,40.7893534 C60.6547852,39.2197663 62.7165062,38.3626573 64.8054063,38.586884 C65.314646,38.6391418 65.8278971,38.6391418 66.3371369,38.586884 C70.2344802,38.1887752 73.1454357,34.8208677 72.9750703,30.9069501 C72.804705,26.9930325 69.6121168,23.8908005 65.6949218,23.8328435 C61.7777269,23.7748865 58.4947578,26.7813091 58.2086754,30.6884733 C58.1720722,31.1999793 58.18801,31.7138904 58.2562387,32.2221453 C58.5289993,34.2450392 57.9650352,36.2902587 56.5905545,37.798693 L55.3626462,39.1440534 C54.0288233,40.6126242 51.9925196,41.2236647 50.0705072,40.7320834 L50.0045011,40.7146111 C48.5245483,40.339322 47.4114386,39.116964 47.175944,37.6084401 L47.1409996,37.3832427 C46.5236481,33.4170505 48.0078155,29.4615358 50.955766,26.7358706 C51.775544,25.9764146 52.5104471,25.130202 53.1475579,24.2121066 C57.8437004,17.4649206 56.1566612,7.65718538 49.4667452,2.87659397 C46.0442426,0.428348657 41.7693957,-0.513749631 37.6348286,0.269055382 C33.5002615,1.0518604 29.8656785,3.49146526 27.5750338,7.021391 C23.1613588,13.8112869 25.0609766,23.4472119 31.7130361,28.0657001 C32.6490636,28.7164538 33.6543566,29.2614216 34.7104912,29.6906158 C38.478665,31.2204051 41.1024089,34.6993167 41.7275258,38.7179256 L41.7508221,38.8664394 C41.9662201,40.2615563 41.3933784,41.6615455 40.2618013,42.5055129 C39.8688855,42.7998378 39.4953691,43.1192073 39.1435797,43.4616312 C37.7350265,44.8265739 35.6378238,45.1974371 33.8465874,44.398336 L33.5786801,44.2789425 C31.4800732,43.3470912 29.8901019,41.5950165 29.0164913,39.4702014 C28.9362486,39.2760658 28.8450048,39.0819301 28.74276,38.8877943 C27.202706,36.0156177 23.7286071,34.7889727 20.7265713,36.057415 C17.7245354,37.3258572 16.182539,40.6719397 17.1685452,43.7782167 C18.1545514,46.8844937 21.3440635,48.7286828 24.5280741,48.0335268 C24.8691039,47.9628537 25.2038028,47.8644892 25.5288436,47.7394112 C27.6235677,46.900745 29.9813457,47.0220799 32.0440375,47.933547 L32.8894984,48.3091995 C34.4744277,49.0267081 35.5568263,50.5345197 35.7297036,52.2656849 L35.7297036,52.3025707 C35.7297036,52.3297496 35.7297036,52.3569287 35.7355277,52.3841076 C35.849097,54.5331897 34.8852133,56.5949108 33.0865461,57.7771972 L32.8594073,57.9266817 C29.8813658,59.8825988 26.0840716,59.9223966 22.979842,58.173234 C21.8198461,57.5200144 20.5799596,57.0201444 19.2912637,56.6861546 C11.1967761,54.5856065 2.5422069,59.6913751 0.480485871,67.7984817 C-0.558011297,71.875264 0.115451146,76.1993923 2.34456616,79.7672596 C4.57368118,83.3351268 8.16461679,85.8364902 12.283936,86.6907967 C20.4987879,88.4011321 28.6651057,83.0992863 30.4637729,74.900936 C30.7408481,73.6426192 30.8585768,72.3544522 30.8141878,71.0667561 C30.7025598,67.8635171 32.3507718,64.8437364 35.0337271,63.0809843 L36.4518884,62.1501037 C38.1068952,61.0629439 40.2268569,60.8882217 41.9993158,61.7666857 C42.2219247,61.8773431 42.4484163,61.9812057 42.6787907,62.0782735 C44.0420603,62.6553796 44.9605141,63.9552061 45.0491875,65.4329383 L45.117135,66.5152448 C45.1516265,67.1287631 44.8312126,67.7076971 44.293029,68.0042655 C41.6514833,69.495134 40.1879042,72.4476447 40.6008243,75.4526321 C41.0137444,78.4576195 43.2194586,80.9059268 46.1652301,81.6290331 C49.1110016,82.3521394 52.1996775,81.20346 53.9571038,78.7312332 C56.0595933,75.7900775 55.6878235,71.6724595 53.0951413,69.1525781 C52.273219,68.352062 51.2762306,67.753869 50.1831059,67.4053569 C49.5472863,67.2124074 49.0958644,66.6479372 49.0474121,65.9852543 L49.0474121,65.9435151 C48.9502986,64.262331 49.9285005,62.7040644 51.4847857,62.0608013 L51.5430265,62.0355636 C53.9920482,60.9804361 56.7992504,61.1561289 59.1696472,62.3782131 L60.3344613,62.9790631 C64.7982435,65.2678979 68.0032958,69.4344658 69.0705675,74.3360011 C69.1721652,74.8077508 69.2967356,75.2785299 69.4442787,75.7483383 C71.9272742,83.61957 80.3158775,88.1730227 88.2647634,85.9579344 C92.51957,84.7770718 96.0634825,81.8278877 97.997641,77.8583982 C99.9317995,73.8889087 100.07039,69.2804604 98.3782623,65.2019168 L98.3782623,65.2019168 Z" id="路径"></path>
                </g>
            </g>
        </g>
    </g>
</svg>