<?xml version="1.0" encoding="UTF-8"?>
<svg width="48px" height="43px" viewBox="0 0 48 43" version="1.1" xmlns="http://www.w3.org/2000/svg" xmlns:xlink="http://www.w3.org/1999/xlink">
    <!-- Generator: Sketch 63 (92445) - https://sketch.com -->
    <title>即时监测</title>
    <desc>Created with Sketch.</desc>
    <g id="页面-1" stroke="none" stroke-width="1" fill="none" fill-rule="evenodd">
        <g id="5产品与展示" transform="translate(-937.000000, -1146.000000)" fill="#666666" fill-rule="nonzero">
            <g id="2" transform="translate(244.000000, 953.000000)">
                <g id="编组-3" transform="translate(485.000000, 115.000000)">
                    <g id="即时监测" transform="translate(208.000000, 78.000000)">
                        <path d="M28.3059659,10.8366477 L39.2263258,10.8366477 C39.9004261,10.8366477 40.4488163,10.2665246 40.4488163,9.56581439 C40.4488163,8.86496212 39.9004261,8.29474432 39.2263258,8.29474432 L28.3059659,8.29474432 C27.6318182,8.29474432 27.0833333,8.86491477 27.0833333,9.56581439 C27.0833333,10.266572 27.6318182,10.8366477 28.3059659,10.8366477 Z" id="路径"></path>
                        <path d="M42.8663826,14.3926136 L32.8562973,14.3926136 C32.1820549,14.3926136 31.6335227,14.9627367 31.6335227,15.663447 C31.6335227,16.3642992 32.1820549,16.9344697 32.8562973,16.9344697 L42.8663826,16.9344697 C43.540483,16.9344697 44.0889205,16.3642992 44.0889205,15.663447 C44.0889205,14.9626894 43.540483,14.3926136 42.8663826,14.3926136 Z" id="路径"></path>
                        <path d="M29.2160511,14.3925189 L28.3059659,14.3925189 C27.6318182,14.3925189 27.0833333,14.9626894 27.0833333,15.6635417 C27.0833333,16.3642992 27.6318182,16.9344223 28.3059659,16.9344223 L29.2160511,16.9344223 C29.8902462,16.9344223 30.4387784,16.3642992 30.4387784,15.6635417 C30.4387784,14.9626894 29.8902462,14.3925189 29.2160511,14.3925189 Z" id="路径"></path>
                        <path d="M42.8663826,18.5304451 L32.8562973,18.5304451 C32.1820549,18.5304451 31.6335227,19.1005682 31.6335227,19.8012784 C31.6335227,20.5021307 32.1820549,21.0723485 32.8562973,21.0723485 L42.8663826,21.0723485 C43.540483,21.0723485 44.0889205,20.502178 44.0889205,19.8012784 C44.0889205,19.1005208 43.540483,18.5304451 42.8663826,18.5304451 Z" id="路径"></path>
                        <path d="M29.2160511,18.5303504 L28.3059659,18.5303504 C27.6318182,18.5303504 27.0833333,19.1005208 27.0833333,19.8013731 C27.0833333,20.502036 27.6318182,21.0721117 28.3059659,21.0721117 L29.2160511,21.0721117 C29.8902462,21.0721117 30.4387784,20.502036 30.4387784,19.8013731 C30.4387784,19.1005208 29.8902462,18.5303504 29.2160511,18.5303504 Z" id="路径"></path>
                        <path d="M42.8663826,22.810322 L32.8562973,22.810322 C32.1820549,22.810322 31.6335227,23.3803977 31.6335227,24.081108 C31.6335227,24.7819602 32.1820549,25.352178 32.8562973,25.352178 L42.8663826,25.352178 C43.540483,25.352178 44.0889205,24.7819602 44.0889205,24.081108 C44.0889205,23.3803977 43.540483,22.810322 42.8663826,22.810322 Z" id="路径"></path>
                        <path d="M29.2160511,22.810322 L28.3059659,22.810322 C27.6318182,22.810322 27.0833333,23.3804924 27.0833333,24.0812973 C27.0833333,24.7820549 27.6318182,25.352178 28.3059659,25.352178 L29.2160511,25.352178 C29.8902462,25.352178 30.4387784,24.7820549 30.4387784,24.0812973 C30.4387784,23.3804924 29.8902462,22.810322 29.2160511,22.810322 Z" id="路径"></path>
                        <path d="M18.2294508,16.906392 L14.9303977,16.906392 L14.9303977,12.3982481 C14.9303977,11.8171402 14.4546875,11.3443655 13.8698864,11.3443655 C13.2887311,11.3443655 12.8159564,11.8171402 12.8159564,12.3982481 L12.8159564,18.283428 L12.8372633,18.3048295 L12.8383996,18.3660511 L12.9349432,18.462642 L12.9744318,18.5419508 L13.0044981,18.5720644 C13.2027936,18.8574337 13.5253314,19.0273674 13.8702652,19.0273674 L18.2294034,19.0273674 C18.8105114,19.0273674 19.2832387,18.5516572 19.2832387,17.9669034 C19.2833333,17.3821496 18.8105587,16.906392 18.2294508,16.906392 Z" id="路径"></path>
                        <path d="M13.8703125,7.80198864 C11.431108,7.80198864 9.13626894,8.75326705 7.40842803,10.4805871 C5.68110795,12.2079072 4.72982955,14.505161 4.72982955,16.9491004 C4.72982955,19.392803 5.68125,21.6900568 7.40890152,23.4175663 C9.13631629,25.1448864 11.4310133,26.0962121 13.8703598,26.0962121 C16.3065814,26.0962121 18.6038352,25.1447443 20.3393466,23.4166193 C22.0660985,21.6824811 23.0170455,19.3856061 23.0170455,16.949053 C23.0170455,14.5125 22.065625,12.2151515 20.3375947,10.4796875 C18.6038352,8.75298295 16.3070549,7.80198864 13.8703125,7.80198864 Z M13.8703125,23.9756629 C11.9897727,23.9756629 10.2245739,23.2461174 8.90018939,21.9216856 C7.57438447,20.5894886 6.84422348,18.8234848 6.84422348,16.9491004 C6.84422348,15.0749527 7.57414773,13.3094223 8.89924242,11.9779356 C10.2240057,10.6527936 11.9894413,9.92301136 13.8703125,9.92301136 C15.7508049,9.92301136 17.5162879,10.6528409 18.8414773,11.9780777 C20.1708807,13.3070549 20.9030303,15.0724905 20.9030303,16.9491477 C20.9030303,18.8256155 20.1708807,20.5911932 18.8414299,21.9207386 C17.5162879,23.2458807 15.7508523,23.9756629 13.8703125,23.9756629 Z" id="形状"></path>
                        <path d="M47.9425189,3.16827652 L47.942803,3.16827652 C47.9312973,1.60331439 47.2856534,0.385511364 45.4586174,0.162594697 C44.5521307,0.0520359848 43.6290246,0.0495738636 42.713447,0.0475378788 C38.8141098,0.0384469697 34.9147727,0.049905303 31.0153883,0.0498106061 C27.1160511,0.0496685606 23.216714,0.0434185606 19.3172822,0.0421401515 C15.3803977,0.0410037879 11.4437027,0.0270359848 7.50714962,0.049905303 C5.72982955,0.0601325758 3.94796402,0.0814867424 2.17765152,0.220549242 C1.01070076,0.312357955 0.185700758,1.27675189 0.0904829545,2.44791667 C0.0223958333,3.28669508 0.0105113636,4.13143939 0.00861742424,4.97357955 C0.000662878788,8.89152462 0.00558712121,12.809375 0.00473484848,16.7272254 C0.00378787879,20.6447917 -0.00298295455,24.5623106 0.00246212121,28.4799242 C0.00482954545,30.1475852 -0.0231060606,31.8181818 0.0643465909,33.4819602 C0.133570076,34.8020833 0.89375,35.6175663 2.21382576,35.8335701 C3.05535038,35.9712595 3.92651515,35.9547348 4.78461174,35.9579545 C8.12064394,35.9708807 11.4567708,35.9642519 14.792803,35.9648674 C16.4392519,35.9651515 18.0856534,35.9648674 19.8516098,35.9648674 C19.8516098,36.8794508 19.820786,37.7018939 19.8596117,38.520928 C19.8961174,39.2913352 19.7938447,39.5815814 19.2650095,39.6668087 L12.6686553,39.6668087 C12.4314394,39.6668087 12.2390625,40.0486269 12.2390625,40.5197443 L12.2390625,41.5950284 C12.2390625,42.0660511 12.4314394,42.4479167 12.6686553,42.4479167 L35.2948864,42.4479167 C35.5321023,42.4479167 35.7244318,42.0660985 35.7244318,41.5950284 L35.7244318,40.5197443 C35.7244318,40.0486742 35.5320549,39.6668087 35.2948864,39.6668087 L28.7767519,39.6668087 C27.9799242,39.6476799 28.1175189,39.5308712 28.1122159,38.3143939 C28.1111742,38.0894886 28.1052083,37.8645833 28.1049242,37.6395833 C28.1038826,37.0873106 28.1045928,36.5352273 28.1045928,35.9659091 C30.5955492,35.9659091 32.9941761,35.9649148 35.3928977,35.9661932 C38.6167614,35.9678504 41.8404356,35.9869318 45.0639205,35.9567708 C45.5485795,35.9523201 46.0660511,35.7941761 46.5075758,35.581108 C47.6548295,35.027983 47.9401515,33.9553504 47.9449811,32.8072443 C47.9635562,28.4205019 47.9512311,24.0336174 47.952036,19.6467803 C47.9533617,14.1537405 47.9825758,8.66074811 47.9425189,3.16827652 Z M22.7369792,32.5520833 C22.7369792,31.8645833 23.2943182,31.307339 23.9817708,31.307339 C24.6692235,31.307339 25.2265625,31.8646307 25.2265625,32.5520833 C25.2265625,33.2396307 24.6692235,33.7969223 23.9817708,33.7969223 C23.2943182,33.7969223 22.7369792,33.2396307 22.7369792,32.5520833 Z M45.1525568,13.9177557 L45.1525568,13.9178504 C45.153267,15.4562973 45.1524148,16.9947443 45.1535511,18.5329545 C45.1545455,20.0526989 45.1583333,21.5723011 45.158428,23.0918087 C45.1585701,25.029214 45.1693182,26.966714 45.1476326,28.9037405 C45.1398674,29.6137784 44.7529356,30.0254735 44.0121212,30.0549242 C42.6837121,30.1072443 41.3528409,30.0961648 40.0229167,30.0984848 C37.2875473,30.103125 34.5521307,30.1002367 31.8166667,30.0984848 C29.1183712,30.0965436 26.4202178,30.0912879 23.7220644,30.089678 C21.0424716,30.0883049 18.3630682,30.0889205 15.683428,30.0905303 C12.9852273,30.0918087 10.2871686,30.095786 7.58892045,30.0977273 C6.67088068,30.0984848 5.75284091,30.0958807 4.83480114,30.095786 C4.72234848,30.095786 4.61003788,30.1039334 4.49758523,30.1039334 C3.15080492,30.1052083 2.76022727,29.7567708 2.74417614,28.4102273 C2.71950758,26.3556345 2.73716856,24.3004261 2.73958333,22.2455019 C2.74270833,19.5249053 2.75018939,16.804214 2.75274621,14.0835701 C2.75544508,11.1916193 2.74375,8.29985795 2.76074811,5.40814394 C2.76808712,4.15814394 3.0640625,3.87466856 4.31027462,3.87035985 C7.74176136,3.85871212 11.1733428,3.86074811 14.6049716,3.8592803 C17.7552083,3.85800189 20.9054924,3.85894886 24.0557765,3.85894886 C30.35625,3.85836282 36.6568655,3.85800189 42.9573864,3.85923295 C43.2761364,3.85923295 43.5950758,3.86453598 43.9133996,3.87945076 C44.7944602,3.92097538 45.1450284,4.24256629 45.159517,5.14176136 C45.1825758,6.56576705 45.1524148,7.9905303 45.150142,9.41491477 C45.1476326,10.9160511 45.1518466,12.4169034 45.1525568,13.9177557 Z" id="形状"></path>
                    </g>
                </g>
            </g>
        </g>
    </g>
</svg>