<?xml version="1.0" encoding="UTF-8"?>
<svg width="28px" height="25px" viewBox="0 0 28 25" version="1.1" xmlns="http://www.w3.org/2000/svg" xmlns:xlink="http://www.w3.org/1999/xlink">
    <!-- Generator: Sketch 63 (92445) - https://sketch.com -->
    <title>右边</title>
    <desc>Created with Sketch.</desc>
    <g id="页面-1" stroke="none" stroke-width="1" fill="none" fill-rule="evenodd" opacity="0.633858817">
        <g id="4产品与展示" transform="translate(-725.000000, -769.000000)" fill-rule="nonzero">
            <g id="编组-2" transform="translate(342.000000, 622.000000)">
                <g id="右边" transform="translate(383.000000, 147.000000)">
                    <rect id="矩形" fill="#000000" opacity="0" x="7.26765287" y="-4.4408921e-14" width="24.7119155" height="24.7119155"></rect>
                    <path d="M1.1445303,5.41921607 L14.1059357,5.41921607 L14.1278053,1.15828163 C14.1314503,0.126763704 15.3816646,-0.387172778 16.1106525,0.341815143 L27.2860375,11.5427147 C27.7416549,11.9983321 27.73801,12.73461 27.2823925,13.1902274 L15.9976594,24.3729023 C15.2613816,25.1018902 14.0111673,24.5770189 14.0184572,23.541856 L14.0366819,19.4157843 L1.1445303,19.4157843 C0.510310816,19.4157843 5.71986902e-13,18.9018478 5.71986902e-13,18.2712733 L5.71986902e-13,6.56372713 C-0.00362566637,5.92950762 0.510310816,5.41921607 1.1445303,5.41921607 Z" id="路径" fill="#00B2B0"></path>
                </g>
            </g>
        </g>
    </g>
</svg>