<?xml version="1.0" encoding="UTF-8"?>
<svg width="98px" height="100px" viewBox="0 0 98 100" version="1.1" xmlns="http://www.w3.org/2000/svg" xmlns:xlink="http://www.w3.org/1999/xlink">
    <!-- Generator: Sketch 63 (92445) - https://sketch.com -->
    <title>大数据网络营销图标</title>
    <desc>Created with Sketch.</desc>
    <g id="页面-1" stroke="none" stroke-width="1" fill="none" fill-rule="evenodd">
        <g id="首页" transform="translate(-911.000000, -942.000000)" fill="#00C78E" fill-rule="nonzero">
            <g id="1" transform="translate(240.000000, 755.000000)">
                <g id="大数据网络营销图标" transform="translate(671.000000, 187.000000)">
                    <path d="M65.0123832,72.1415915 C62.7524968,69.0067252 58.8186614,67.0595401 55.7019169,67.0595401 L41.9532257,67.0595401 C38.8366825,67.0595401 34.8844233,69.024847 32.6427593,72.1415915 L27.0139336,79.9725153 C20.9173647,88.4076997 20.0609093,99.7205219 29.0374315,99.7205219 L68.5965689,99.7205219 C77.5760108,99.7205219 76.7167365,88.4048808 70.6412089,79.9725153 L65.0123832,72.1415915 Z M48.9036324,0 C21.8897995,0 -3.21447899e-05,21.8899001 -3.21447899e-05,48.9063507 C-0.0167123067,63.4792808 6.48397229,77.2960293 17.7219918,86.5737758 C18.3473945,84.9969797 19.1252215,83.3992429 20.0213434,81.8618114 C18.0751676,80.1523582 16.283101,78.2750594 14.6658545,76.2516108 C16.3785919,75.5891294 18.1130844,74.9843269 19.8664022,74.4382249 C20.3525693,76.1727811 20.8990416,77.8675701 21.4824621,79.5831991 C21.5612919,79.4650048 21.6401216,79.3468106 21.7163338,79.2524766 L23.2141994,77.1655525 C22.8463273,76.0356596 22.5152022,74.8873429 22.2024001,73.7391269 C23.6222607,73.3329116 25.0503601,72.956066 26.4857845,72.6088313 L28.6669418,69.5712186 C26.2870612,70.0794658 23.9288437,70.6843273 21.5981395,71.3843025 C20.2874798,66.1362852 19.427695,60.7858622 19.0281693,55.3914304 C22.2365295,54.8146545 24.7246496,52.2644169 25.2218911,49.0427674 L35.2338716,49.0427674 C35.2338716,49.2186493 35.2127295,49.3737919 35.2127295,49.5497745 C35.2119546,53.1864051 36.6564365,56.674273 39.2281681,59.2455137 C41.7998998,61.8167545 45.2880434,63.2605704 48.9246738,63.2591012 C52.5613287,63.2606506 56.049519,61.8168604 58.621268,59.2456023 C61.1930171,56.6743442 62.6374732,53.1864297 62.6366181,49.5497745 C62.6366181,49.3737919 62.6366181,49.2186493 62.6180936,49.0427674 L72.8827722,49.0427674 C73.3714562,52.2620006 75.8535358,54.813547 79.0580702,55.3914304 C78.6308751,60.8262827 77.7438277,66.2151515 76.4064514,71.5001812 C74.0790063,70.8053599 71.7273268,70.1944626 69.3559721,69.6686735 L71.5372302,72.727529 C72.9598874,73.0767751 74.3756638,73.4534764 75.7837669,73.8574219 C75.4712669,74.9877175 75.1218186,76.0962669 74.7722697,77.2264618 L76.2304688,79.2498591 L76.5038056,79.6414908 C77.0897431,77.965025 77.6338998,76.2724509 78.1199662,74.5774605 C79.796432,75.1215166 81.470381,75.7076554 83.107583,76.3304406 C81.5308876,78.2959488 79.775592,80.1274565 77.8862959,81.8016068 C78.8030565,83.3414546 79.5810849,84.9391914 80.2039707,86.5158868 C90.9780726,77.5364449 97.8314272,64.0398478 97.8314272,48.9064514 C97.8151176,21.8925177 75.9205863,0 48.9064514,0 L48.9036324,0 Z M92.6700427,46.4914224 L87.8981757,46.4914224 C87.3058956,43.3088354 84.7671351,40.8479986 81.5677352,40.3554889 C81.0779935,34.0863196 79.9625863,27.8818335 78.2381604,21.8346287 C79.5810849,21.4061493 80.9054849,20.9386074 82.2327038,20.4497221 C88.4880247,27.7420105 92.1574744,36.8974772 92.6700427,46.4914224 L92.6700427,46.4914224 Z M80.5162693,18.5420023 C79.5442373,18.8915512 78.5481435,19.2042526 77.5733932,19.514135 C77.0259417,17.7498462 76.4230262,16.003248 75.7655445,14.276941 C77.452796,15.5787292 79.040762,17.0043584 80.5162693,18.5420023 Z M72.2573695,11.8225475 C73.3803335,14.5726226 74.3747503,17.3734515 75.2373953,20.2159512 C69.1257583,21.9558095 62.8566124,23.0851569 56.522028,23.5874074 C56.3280243,20.1350072 53.8317494,17.2468992 50.4440842,16.5551506 L50.4440842,5.12423486 C58.1832349,5.36686004 65.7158102,7.67992494 72.2573695,11.8225475 Z M48.9064514,29.0980388 C46.0996899,29.0965287 43.8244,26.8223462 43.8216817,24.0159874 C43.9292043,21.2859415 46.1733851,19.1285438 48.9051426,19.1285438 C51.6367993,19.1285438 53.8809802,21.2859415 53.9886034,24.0158868 C53.9857845,26.8213394 51.7120047,29.0950185 48.9064514,29.0980388 L48.9064514,29.0980388 Z M25.9024646,11.6072004 C32.5188094,7.51177633 40.11244,5.26575578 47.8920345,5.10319346 L47.8920345,16.4579977 C44.2781492,16.9444668 41.5172962,19.9258014 41.3092985,23.5662653 C35.0805654,23.0573929 28.9162995,21.9423249 22.904015,20.2368919 C23.7975193,17.3148558 24.8328769,14.4529236 25.9995168,11.6070997 L25.9024646,11.6070997 L25.9024646,11.6072004 L25.9024646,11.6072004 Z M22.5545667,13.9064514 C21.8404835,15.7689949 21.1840951,17.6531486 20.5863402,19.5562178 C19.5142357,19.2225757 18.4447487,18.8730267 17.3726442,18.4841132 C18.9739833,16.8212988 20.7069168,15.2904415 22.5545667,13.9064514 L22.5545667,13.9064514 Z M15.6382893,20.3919338 C17.041519,20.9174654 18.4632732,21.4061493 19.8849267,21.8713756 C18.155333,27.9066175 17.0268612,34.0981215 16.5159874,40.3554889 C13.3123591,40.8467904 10.767256,43.3064191 10.1671231,46.4914224 L5.14004108,46.4914224 C5.65783968,36.8702183 9.3497207,27.6919055 15.6382893,20.3919338 L15.6382893,20.3919338 Z M13.1837951,74.3041237 C7.92947889,66.9274628 5.09832642,58.099809 5.08225274,49.0431701 L10.1276579,49.0431701 C10.6272149,52.3273397 13.1952722,54.9098945 16.4765222,55.4288821 C16.9041659,61.0644294 17.8301492,66.6510217 19.2436171,72.1231677 C17.1962816,72.7716595 15.1748264,73.4991899 13.1837951,74.3041237 L13.1837951,74.3041237 Z M17.6643041,52.9769048 C14.8587508,52.9742872 12.584971,50.7004067 12.5821521,47.8946521 C12.5821521,45.0881927 14.8604623,42.8097817 17.6643041,42.8097817 C20.4681459,42.8097817 22.7491745,45.0881927 22.7491745,47.8946521 C22.7461542,50.7013128 20.4708642,52.9753947 17.6643041,52.9769048 Z M25.1430614,46.4914224 C24.5676949,43.3937057 22.1441084,40.9702199 19.0463918,40.3948534 C19.5350757,34.395538 20.5863402,28.4383054 22.2235422,22.5729905 C28.5374526,24.4180464 35.0248529,25.6068515 41.582736,26.12053 C42.4195594,29.0241422 44.8964038,31.1564715 47.8921351,31.552231 L47.8921351,35.8564554 C41.885571,36.3103053 36.8736912,40.6203689 35.5255316,46.4914224 L25.1430614,46.4914224 L25.1430614,46.4914224 L25.1430614,46.4914224 Z M72.9196198,46.4914224 L62.2873711,46.4914224 C60.9858247,40.8087347 56.2371134,36.5675338 50.4438829,35.9143444 L50.4438829,31.4735019 C53.2128997,30.9064265 55.4403741,28.8529258 56.2302674,26.1390544 C62.9007164,25.6339588 69.5000511,24.4326289 75.9205863,22.5546674 C77.5275223,28.3880605 78.5711834,34.3621493 79.0372302,40.3948534 C75.934077,40.9679043 73.5032418,43.3905847 72.9196198,46.4914224 L72.9196198,46.4914224 Z M75.3371658,47.8946521 C75.3371658,45.0881927 77.6153753,42.8097817 80.4192171,42.8097817 C83.223059,42.8097817 85.5013692,45.0881927 85.5013692,47.8946521 C85.4984496,50.7004067 83.2245691,52.9742872 80.4192171,52.9769048 C77.6124557,52.975294 75.3371658,50.7012121 75.3342461,47.8946521 L75.3371658,47.8946521 Z M78.7453689,72.238543 C80.1929889,66.7323211 81.1444927,61.1074986 81.5884745,55.4314997 C84.8775773,54.9196601 87.4549976,52.3338837 87.9558634,49.0431701 L92.7277303,49.0431701 C92.7226237,58.1348824 89.8692106,66.9965352 84.5683996,74.3830541 C82.6535865,73.598999 80.7113339,72.8837045 78.7453689,72.238543 L78.7453689,72.238543 Z" id="形状"></path>
                </g>
            </g>
        </g>
    </g>
</svg>