<?xml version="1.0" encoding="UTF-8"?>
<svg width="45px" height="46px" viewBox="0 0 45 46" version="1.1" xmlns="http://www.w3.org/2000/svg" xmlns:xlink="http://www.w3.org/1999/xlink">
    <!-- Generator: Sketch 63 (92445) - https://sketch.com -->
    <title>端口-o</title>
    <desc>Created with Sketch.</desc>
    <g id="页面-1" stroke="none" stroke-width="1" fill="none" fill-rule="evenodd">
        <g id="5产品与展示" transform="translate(-453.000000, -1145.000000)" fill="#666666" fill-rule="nonzero">
            <g id="2" transform="translate(244.000000, 953.000000)">
                <g id="编组-2" transform="translate(0.000000, 115.000000)">
                    <g id="端口-o" transform="translate(209.000000, 77.000000)">
                        <path d="M41.0352104,0.00724362009 L3.94778283,0.00724362009 C1.62981859,0.00724362009 0.00724362009,1.86161498 0.00724362009,3.94778283 L0.00724362009,10.6698791 C0.00724362009,12.9878433 1.62981859,14.6104182 3.94778283,14.6104182 L41.0352104,14.6104182 C43.1213782,14.6104182 44.9757496,12.7560469 44.9757496,10.6698791 L44.9757496,3.94778283 C44.9757496,1.86161503 43.3531746,0.00724362009 41.0352104,0.00724362009 Z M41.0352104,10.6698791 L3.94778283,10.6698791 L3.94778283,3.94778283 L41.0352104,3.94778283 L41.0352104,10.6698791 L41.0352104,10.6698791 Z" id="形状"></path>
                        <path d="M35.9356891,7.42472917 C35.9356891,8.44887019 36.7659194,9.27910053 37.7900605,9.27910053 C38.8142015,9.27910053 39.6444318,8.44887019 39.6444318,7.42472917 C39.6444318,6.40058815 38.8142015,5.57035781 37.7900605,5.57035781 C36.7659194,5.57035781 35.9356891,6.40058815 35.9356891,7.42472917 Z" id="路径"></path>
                        <path d="M35.9356891,25.2730537 C35.9356891,26.2971947 36.7659194,27.127425 37.7900605,27.127425 C38.8142015,27.127425 39.6444318,26.2971947 39.6444318,25.2730537 C39.6444318,24.2489126 38.8142015,23.4186823 37.7900605,23.4186823 C36.7659194,23.4186823 35.9356891,24.2489126 35.9356891,25.2730537 L35.9356891,25.2730537 Z" id="路径"></path>
                        <path d="M41.0352104,18.0873646 L3.94778283,18.0873646 C1.86161503,18.0873646 0.00724362009,19.9417359 0.00724362009,22.0279038 L0.00724362009,28.75 C0.00724362009,30.8361678 1.86161498,32.6905392 3.94778283,32.6905392 L20.1735324,32.6905392 L20.1735324,41.2670068 L18.319161,41.2670068 L18.319161,45.207546 L26.2002394,45.207546 L26.2002394,41.2670068 L24.345868,41.2670068 L24.345868,32.6905392 L41.0352104,32.6905392 C43.1213782,32.6905392 44.9757496,30.8361678 44.9757496,28.75 L44.9757496,22.0279038 C44.9757496,19.7099395 43.3531746,18.0873646 41.0352104,18.0873646 Z M41.0352104,28.75 L3.94778283,28.75 L3.94778283,22.0279038 L41.0352104,22.0279038 L41.0352104,28.75 L41.0352104,28.75 Z" id="形状"></path>
                        <polygon id="路径" points="0.470836501 41.2670068 8.35191482 41.2670068 8.35191482 45.207546 0.470836501 45.207546"></polygon>
                        <polygon id="路径" points="9.27910053 41.2670068 17.1601789 41.2670068 17.1601789 45.207546 9.27910053 45.207546"></polygon>
                        <polygon id="路径" points="27.127425 41.2670068 35.0085034 41.2670068 35.0085034 45.207546 27.127425 45.207546"></polygon>
                        <polygon id="路径" points="36.1674855 41.2670068 44.0485639 41.2670068 44.0485639 45.207546 36.1674855 45.207546"></polygon>
                    </g>
                </g>
            </g>
        </g>
    </g>
</svg>