<?xml version="1.0" encoding="UTF-8"?>
<svg width="72px" height="72px" viewBox="0 0 72 72" version="1.1" xmlns="http://www.w3.org/2000/svg" xmlns:xlink="http://www.w3.org/1999/xlink">
    <!-- Generator: Sketch 63 (92445) - https://sketch.com -->
    <title>编组 12</title>
    <desc>Created with Sketch.</desc>
    <g id="页面-1" stroke="none" stroke-width="1" fill="none" fill-rule="evenodd">
        <g id="4产品与展示" transform="translate(-925.000000, -681.000000)">
            <g id="编组-2" transform="translate(342.000000, 622.000000)">
                <g id="编组-6" transform="translate(439.000000, 0.000000)">
                    <g id="编组-12" transform="translate(144.000000, 59.000000)">
                        <circle id="椭圆形" fill="#FFFFFF" cx="36" cy="36" r="36"></circle>
                        <g id="信息" transform="translate(22.000000, 21.000000)" fill="#00B2B0" fill-rule="nonzero">
                            <path d="M4.27602008,3.20207254 L4.27602008,12.811399 L23.4931185,12.811399 L23.4931185,3.20207254 C23.4922609,2.61290823 23.0144078,2.1357513 22.4252429,2.1357513 L5.34389573,2.1357513 C4.75473079,2.1357513 4.27687767,2.61290823 4.27602008,3.20207254 Z M25.6288698,3.20207254 L25.6288698,12.811399 C26.8024449,12.811399 27.7630667,13.7720207 27.7630667,14.9455959 L27.7630667,27.7569948 C27.7630667,28.9321244 26.8024449,29.8927461 25.6288698,29.8927461 L2.14182319,29.8927461 C0.963697705,29.8893312 0.00948676916,28.9351203 0.00607189119,27.7569948 L0.00607189119,14.9455959 C0.00607189119,13.7720207 0.966693653,12.811399 2.14182319,12.811399 L2.14182319,3.20207254 C2.14182319,1.43626943 3.57809262,0 5.34389573,0 L22.4252429,0 C24.191046,0 25.6273154,1.43626943 25.6273154,3.20207254 L25.6288698,3.20207254 Z M7.47964702,4.26994819 L20.2894916,4.26994819 C20.8770563,4.26994819 21.3573672,4.75181347 21.3573672,5.33782383 C21.3573672,5.9253886 20.8770563,6.40569948 20.2894916,6.40569948 L7.47964702,6.40569948 C6.89058428,6.40399204 6.41347881,5.92688658 6.41177137,5.33782383 C6.41177137,4.75025907 6.89208225,4.26994819 7.47964702,4.26994819 Z M20.2894916,8.53989637 C20.8770563,8.53989637 21.3573672,9.02176166 21.3573672,9.60777202 C21.3573672,10.1953368 20.8770563,10.6756477 20.2894916,10.6756477 L7.47964702,10.6756477 C6.89058428,10.6739402 6.41347881,10.1968348 6.41177137,9.60777202 C6.41177137,9.02176166 6.89208225,8.53989637 7.47964702,8.53989637 L20.2894916,8.53989637 Z" id="形状"></path>
                        </g>
                    </g>
                </g>
            </g>
        </g>
    </g>
</svg>