<?xml version="1.0" encoding="UTF-8"?>
<svg width="72px" height="72px" viewBox="0 0 72 72" version="1.1" xmlns="http://www.w3.org/2000/svg" xmlns:xlink="http://www.w3.org/1999/xlink">
    <!-- Generator: Sketch 63 (92445) - https://sketch.com -->
    <title>编组 6</title>
    <desc>Created with Sketch.</desc>
    <g id="页面-1" stroke="none" stroke-width="1" fill="none" fill-rule="evenodd">
        <g id="解决方案1" transform="translate(-581.000000, -1549.000000)">
            <g id="编组-2" transform="translate(529.000000, 1284.000000)">
                <g id="编码归一/场景2hang" transform="translate(20.000000, 231.000000)">
                    <g id="编组-8">
                        <g id="编组-6" transform="translate(32.000000, 34.000000)">
                            <circle id="椭圆形" fill="#00B2B0" cx="36" cy="36" r="36"></circle>
                            <g id="数据-(14)" transform="translate(20.000000, 23.000000)" fill="#FFFFFF" fill-rule="nonzero">
                                <path d="M12.6468809,16.8499772 C12.9597894,17.8930054 13.9506662,18.6492009 15.0979646,18.6492009 C16.5060527,18.6492009 17.653351,17.5018698 17.653351,16.0937817 C17.653351,14.6856936 16.5060527,13.5384277 15.0979646,13.5384277 C13.9245578,13.5384277 12.9337137,14.3206992 12.6208052,15.3897704 L5.05891597,15.3897704 C4.73510108,14.2916145 3.72665928,13.5379403 2.58175662,13.5384277 C1.1475928,13.5384277 0.0263374445,14.685759 0.0263374445,16.0938144 C0.0263374445,17.5018698 1.1736685,18.6492009 2.58175662,18.6492009 C3.72905497,18.6492009 4.69385608,17.8930382 5.03284026,16.8500099 L12.6468809,16.8500099 L12.6468809,16.8499772 Z M25.7889059,3.16036247 L27.8749623,3.16036247 L27.8749623,4.6466777 L25.7889059,4.6466777 L25.7889059,3.16036247 Z M28.4746708,3.16036247 L30.5607273,3.16036247 L30.5607273,4.6466777 L28.4746708,4.6466777 L28.4746708,3.16036247 Z M12.6208052,24.3857908 L14.7068617,24.3857908 L14.7068617,25.8720733 L12.6208052,25.8720733 L12.6208052,24.3857908 Z M15.3065702,24.3857908 L17.3926267,24.3857908 L17.3926267,25.8720733 L15.3065702,25.8720733 L15.3065702,24.3857908 Z M18.0184109,24.3857908 L20.1044674,24.3857908 L20.1044674,25.8720733 L18.0184109,25.8720733 L18.0184109,24.3857908 Z" id="形状"></path>
                                <path d="M5.52824595,13.0951083 L7.61430243,13.0951083 L7.61430243,14.5814235 L5.52824595,14.5814235 L5.52824595,13.0951083 Z M8.21404366,13.0951083 L10.3001001,13.0951083 L10.3001001,14.5814235 L8.21404366,14.5814235 L8.21404366,13.0951083 Z M10.8998087,13.0951083 L12.9858651,13.0951083 L12.9858651,14.5814235 L10.8998087,14.5814235 L10.8998087,13.0951083 Z M19.9480132,13.564471 L22.0340369,13.564471 L22.0340369,15.0507862 L19.9479804,15.0507862 L19.9479804,13.5644383 L19.9480132,13.564471 Z M22.6598539,13.564471 L24.7459103,13.564471 L24.7459103,15.0507862 L22.6598539,15.0507862 L22.6598539,13.5644383 L22.6598539,13.564471 Z M25.3456189,13.564471 L27.4316753,13.564471 L27.4316753,15.0507862 L25.3456189,15.0507862 L25.3456189,13.5644383 L25.3456189,13.564471 Z M7.37962107,0.00523477157 L9.46567755,0.00523477157 L9.46567755,1.49151729 L7.37962107,1.49151729 L7.37962107,0.00523477157 L7.37962107,0.00523477157 Z M10.0653861,0.00523477157 L12.1514425,0.00523477157 L12.1514425,1.49151729 L10.0653861,1.49151729 L10.0653861,0.00523477157 Z M12.7511511,0.00523477157 L14.8372075,0.00523477157 L14.8372075,1.49151729 L12.7511511,1.49151729 L12.7511511,0.00523477157 Z" id="形状"></path>
                                <path d="M2.71213515,5.50714328 C3.83335779,5.50714328 4.7720832,4.77705623 5.13714308,3.81225512 L11.0301872,3.81225512 C11.3430957,3.81225512 11.8646098,4.04693647 12.0471397,4.28161782 L15.5412516,9.78352633 C16.03669,10.5397218 17.1057939,10.9569331 17.8619567,10.9569331 L21.3821443,10.9569331 C21.7732799,11.8695501 22.6859296,12.4692913 23.7289578,12.4692913 C25.1370132,12.4692913 26.2843443,11.321993 26.2843443,9.91390486 C26.2843443,8.50581674 25.1370132,7.3585184 23.7289251,7.3585184 C22.4512482,7.3585184 21.40822,8.27116811 21.1996143,9.47061786 L17.8880324,9.47061786 C17.5229725,9.47061786 16.9753827,9.23593651 16.8189612,9.00125516 L13.350925,3.52542235 C12.8815623,2.74315117 11.8906855,2.40419971 11.1084143,2.40419971 L5.24144591,2.40419971 C4.98068885,1.25686865 3.96373632,0.422446066 2.73821086,0.422446066 C1.33012274,0.422446066 0.18279168,1.56974441 0.18279168,2.97783253 C0.130640268,4.35981222 1.27797133,5.50714328 2.71213515,5.50714328 Z" id="路径"></path>
                                <path d="M18.0184109,6.23726305 C19.0875149,6.23726305 20.0001646,5.5853704 20.3912674,4.6466777 L25.2152403,4.6466777 L25.2152403,3.16036247 L20.5477217,3.16036247 C20.3130403,1.9869557 19.2700448,1.10041442 18.0184109,1.10041442 C16.6103555,1.10041442 15.4630245,2.24771276 15.4630245,3.65580088 C15.4369488,5.08993199 16.5842471,6.23726305 18.0184109,6.23726305 Z M12.2557454,9.23593651 C12.2557454,7.82788111 11.1084143,6.68055005 9.7003589,6.68055005 C8.2923035,6.68055005 7.14493972,7.82788111 7.14493972,9.23593651 C7.14493972,10.6701003 8.29227078,11.791323 9.7003589,11.791323 C11.0823386,11.8173987 12.2557454,10.6701003 12.2557454,9.23593651 Z M30.3521217,14.1120608 C29.1787149,14.1120608 28.1878708,14.894332 27.8749296,15.9894789 L23.0770652,15.9894789 C22.294794,15.9894789 21.3560686,16.0937817 20.8345544,16.8499772 L17.3404426,22.0650529 C17.1839883,22.2997343 16.6625069,22.5344156 16.2713714,22.5344156 L11.9689126,22.5344156 C11.6560041,21.4913874 10.6651273,20.7091162 9.51782896,20.7091162 C8.10974084,20.7091162 6.96240978,21.85648 6.96240978,23.2645354 C6.96240978,24.6986992 8.10974084,25.8199219 9.51782896,25.8199219 C10.691203,25.8199219 11.6560041,25.0376507 11.9949883,23.9946225 L16.2713714,23.9946225 C17.0536425,23.9946225 18.1227138,23.6295953 18.5920765,22.8733998 L22.0861883,17.6583241 C22.112264,17.6322484 22.2426426,17.4757614 23.1031409,17.4757614 L27.9531567,17.4757614 C28.2921409,18.492714 29.256942,19.196758 30.3781647,19.196758 C31.8123285,19.196758 32.9335838,18.0494597 32.9335838,16.6413715 C32.9335838,15.2593919 31.7862528,14.1120608 30.3521217,14.1120608 L30.3521217,14.1120608 Z" id="形状"></path>
                                <path d="M23.3378222,20.2919377 C21.9297341,20.2919377 20.782403,21.4392687 20.782403,22.8473241 C20.782403,24.2553795 21.9297341,25.4027106 23.3378222,25.4027106 C24.7459103,25.4027106 25.8932087,24.2554122 25.8932087,22.8473241 C25.8932087,21.439236 24.7458776,20.2919377 23.3378222,20.2919377 Z" id="路径"></path>
                            </g>
                        </g>
                    </g>
                </g>
            </g>
        </g>
    </g>
</svg>