<?xml version="1.0" encoding="UTF-8"?>
<svg width="72px" height="72px" viewBox="0 0 72 72" version="1.1" xmlns="http://www.w3.org/2000/svg" xmlns:xlink="http://www.w3.org/1999/xlink">
    <!-- Generator: Sketch 63 (92445) - https://sketch.com -->
    <title>编组 13</title>
    <desc>Created with Sketch.</desc>
    <g id="页面-1" stroke="none" stroke-width="1" fill="none" fill-rule="evenodd">
        <g id="4产品与展示" transform="translate(-487.000000, -681.000000)">
            <g id="编组-2" transform="translate(342.000000, 622.000000)">
                <g id="编组-5">
                    <g id="编组-13" transform="translate(145.000000, 59.000000)">
                        <circle id="椭圆形" fill="#FFFFFF" cx="36" cy="36" r="36"></circle>
                        <g id="文字识别" transform="translate(21.000000, 21.000000)" fill="#00C78E" fill-rule="nonzero">
                            <path d="M28.5480768,13.0401991 L23.7890356,13.0401991 L23.7890356,2.48279722 C23.7890356,1.11250431 22.8405667,0.00108467371 21.6703166,0.00108467371 L2.11871891,0.00108467371 C0.948468826,0.00108467371 0,1.11250431 0,2.48279722 L0,22.0194141 C0,23.3893454 0.948468826,24.500042 2.11871891,24.5000419 L13.7086958,24.5000419 L13.7086958,27.9655453 C13.7086958,28.7642702 14.358744,29.4117647 15.160619,29.4117647 L28.5480768,29.4117647 C29.3499518,29.4117647 30,28.7642702 30,27.9655453 L30,14.4853339 C29.9993989,13.6870326 29.3495268,13.0401989 28.5480768,13.0401991 L28.5480768,13.0401991 Z M7.05562075,4.0392909 C7.92181173,4.0392909 8.70271197,4.55902197 9.03418891,5.35613434 C9.36566586,6.15324672 9.18244079,7.07076276 8.56995127,7.68084616 C7.95746176,8.29092957 7.03632712,8.47343485 6.23607101,8.14326009 C5.43581489,7.81308532 4.91403405,7.03525278 4.91403405,6.17246456 C4.91403405,4.99434528 5.87285508,4.0392909 7.05562075,4.0392909 L7.05562075,4.0392909 Z M13.7086958,14.4853339 L13.7086958,18.9856072 L4.81566627,18.9856072 C4.06719987,18.9856072 3.63488973,18.1392073 4.0759114,17.5361338 L8.71262809,11.2031389 C8.99583841,10.8162804 9.53126896,10.7136263 9.93841425,10.9681282 L13.2567847,13.0401991 C13.6164163,13.2643853 14.083491,13.2135394 14.386018,12.9172705 L17.9475856,9.40295723 C18.524725,8.83278521 19.508403,9.24061911 19.508403,10.0508635 L19.508403,13.0401991 L15.160256,13.0401991 C14.3589478,13.0403984 13.7092968,13.6871737 13.7086958,14.4853339 L13.7086958,14.4853339 Z M26.4707377,18.3988037 L22.5567158,18.3988037 L22.5567158,25.9361378 C22.5480371,26.3164242 22.2360512,26.6202006 21.8541664,26.6202006 C21.4722816,26.6202006 21.1602957,26.3164242 21.1516171,25.9361378 L21.1516171,18.3988037 L17.2368692,18.3988037 C16.8550832,18.3901588 16.5501092,18.0793986 16.5501092,17.6990143 C16.5501092,17.3186299 16.8550832,17.0078698 17.2368692,16.9992248 L26.4707377,16.9992248 C26.7255415,16.9934552 26.9635084,17.1255581 27.0926118,17.3444466 C27.2217152,17.5633351 27.2217152,17.8346934 27.0926118,18.0535819 C26.9635084,18.2724704 26.7255415,18.4045733 26.4707377,18.3988037 Z" id="形状"></path>
                        </g>
                    </g>
                </g>
            </g>
        </g>
    </g>
</svg>