<?xml version="1.0" encoding="UTF-8"?>
<svg width="1220px" height="470px" viewBox="0 0 1220 470" version="1.1" xmlns="http://www.w3.org/2000/svg" xmlns:xlink="http://www.w3.org/1999/xlink">
    <!-- Generator: Sketch 63 (92445) - https://sketch.com -->
    <title>编组 7</title>
    <desc>Created with Sketch.</desc>
    <g id="页面-1" stroke="none" stroke-width="1" fill="none" fill-rule="evenodd">
        <g id="5产品与展示" transform="translate(-351.000000, -340.000000)">
            <g id="编组-7" transform="translate(351.000000, 340.000000)">
                <g id="flow2" transform="translate(425.000000, 0.000000)">
                    <path d="M8,0 L332,0 C336.418278,-8.11624501e-16 340,3.581722 340,8 L340,462 C340,466.418278 336.418278,470 332,470 L8,470 C3.581722,470 5.41083001e-16,466.418278 0,462 L0,8 C-5.41083001e-16,3.581722 3.581722,8.11624501e-16 8,0 Z" id="矩形" fill="#009BC7"></path>
                    <text id="平台数据处理" font-family="PingFangSC-Semibold, PingFang SC" font-size="18" font-weight="500" fill="#FFFFFF">
                        <tspan x="116" y="38">平台数据处理</tspan>
                    </text>
                    <path d="M28,62 L152,62 C156.418278,62 160,65.581722 160,70 L160,221 C160,225.418278 156.418278,229 152,229 L28,229 C23.581722,229 20,225.418278 20,221 L20,70 C20,65.581722 23.581722,62 28,62 Z" id="矩形" fill="#008CB4"></path>
                    <rect id="矩形" fill="#008CB4" x="180" y="62" width="140" height="167" rx="8"></rect>
                    <text id="可视化-操作应用" font-family="PingFangSC-Regular, PingFang SC" font-size="15" font-weight="normal" fill="#FFFFFF">
                        <tspan x="67.5" y="186">可视化</tspan>
                        <tspan x="60" y="207">操作应用</tspan>
                    </text>
                    <g id="办公" transform="translate(224.000000, 86.000000)" fill="#FFFFFF" fill-rule="nonzero">
                        <path d="M30.0287642,37.6789773 C30.0287642,37.5426136 30.0287642,37.40625 29.9946733,37.2698864 C30.0287642,35.90625 29.1424006,34.6448864 27.8128551,34.2698864 C27.3355824,34.0653409 26.7901278,33.9289773 26.2446733,33.9289773 L18.7446733,33.9289773 L19.3242188,23.5994318 L30.096946,23.5994318 C31.4605824,23.5994318 32.5855824,22.5085227 32.5855824,21.1107955 C32.5855824,19.7471591 31.4605824,18.6221591 30.096946,18.6221591 L19.596946,18.6221591 L19.6651278,17.3948864 C19.8355824,14.5994318 17.6878551,12.2130682 14.8924006,12.0426136 C12.096946,11.8721591 9.71058239,14.0198864 9.54012784,16.8153409 L8.48330966,35.7698864 C8.41512784,37.2698864 8.9946733,38.6335227 9.94921875,39.6221591 C10.6310369,40.6789773 11.7901278,41.3948864 13.1537642,41.3948864 L22.8696733,41.3948864 L19.9378551,55.40625 C19.596946,57.0767045 20.6537642,58.6789773 22.2901278,59.0539773 C23.9264915,59.4289773 25.5628551,58.3380682 25.9378551,56.7017045 L29.6196733,39.4176136 C29.8924006,38.90625 30.0287642,38.2926136 30.0287642,37.6789773 Z" id="路径"></path>
                        <path d="M17.5514915,42.28125 L6.13103693,42.28125 L5.44921875,37.3039773 C6.3696733,36.8607955 6.91512784,35.8721591 6.7787642,34.8153409 L4.8696733,20.8380682 C4.69921875,19.5085227 3.47194602,18.5880682 2.14240057,18.7585227 C0.812855114,18.9289773 -0.107599432,20.15625 0.0628551136,21.4857955 L1.97194602,35.4630682 C2.07421875,36.3494318 2.6537642,37.03125 3.4037642,37.3380682 L4.08558239,42.28125 C3.30149148,42.4176136 2.72194602,43.0653409 2.72194602,43.8835227 C2.72194602,44.7698864 3.43785511,45.4857955 4.32421875,45.4857955 L7.93785511,45.4857955 L7.93785511,51.0426136 L13.5287642,51.0426136 L13.5287642,45.5198864 L17.5514915,45.5198864 C18.4378551,45.5198864 19.1878551,44.8039773 19.1878551,43.9176136 C19.1878551,43.03125 18.4378551,42.28125 17.5514915,42.28125 Z M13.5628551,56.6676136 L12.3355824,56.6676136 L12.3355824,51.28125 L9.47194602,51.28125 L9.47194602,56.7017045 L8.07421875,56.7017045 C5.55149148,56.7017045 3.50603693,58.1676136 3.50603693,59.9744318 L18.096946,59.9744318 C18.1310369,58.1335227 16.0855824,56.6676136 13.5628551,56.6676136 L13.5628551,56.6676136 Z M22.4264915,28.1335227 L32.5855824,28.1335227 L32.5855824,56.6335227 L30.0287642,56.6335227 L30.0287642,59.5994318 L39.2674006,59.5994318 L39.2674006,56.6335227 L36.5401278,56.6335227 L36.5401278,28.1335227 L45.3355824,28.1335227 L45.3355824,24.65625 L22.4264915,24.65625 L22.4264915,28.1335227 Z M50.9605824,8.15625 C50.4833097,7.98579545 49.9037642,8.36079545 49.6651278,9.04261364 L44.7560369,22.1335227 L33.4037642,22.1335227 C32.8924006,22.1335227 32.4492188,22.5426136 32.4492188,23.0880682 C32.4492188,23.5994318 32.8583097,24.0426136 33.4037642,24.0426136 L45.096946,24.0426136 C45.5742188,24.1789773 46.1196733,23.8039773 46.3583097,23.15625 L51.4037642,9.72443182 C51.6083097,9.04261364 51.4378551,8.36079545 50.9605824,8.15625 L50.9605824,8.15625 Z M16.6651278,10.8494318 C19.8355824,10.8494318 22.3924006,8.42897727 22.3924006,5.42897727 C22.3924006,2.42897727 19.8355824,0.00852272727 16.6651278,0.00852272727 C13.4946733,0.00852272727 10.9378551,2.42897727 10.9378551,5.42897727 C10.9378551,8.42897727 13.4946733,10.8494318 16.6651278,10.8494318 L16.6651278,10.8494318 Z" id="形状"></path>
                    </g>
                    <g id="数据可视化大屏" transform="translate(58.000000, 94.000000)" fill="#FFFFFF" fill-rule="nonzero">
                        <path d="M63.3141079,0.382157676 C63.0219917,0.11659751 62.6502075,-0.0161825726 62.2784232,0.0369294606 C62.1190871,0.0634854772 47.6991701,1.97551867 29.0834025,1.97551867 C14.9024896,1.97551867 8.21037344,0.860165975 3.21784232,0.249377593 L1.51825726,0.010373444 C1.14647303,-0.0161825726 0.74813278,0.0900414938 0.482572614,0.35560166 C0.190456432,0.621161826 0.031120332,0.992946058 0.031120332,1.39128631 L0.031120332,46.4302905 C0.031120332,46.8286307 0.190456432,47.2004149 0.482572614,47.4659751 C0.774688797,47.7315353 1.14647303,47.8643154 1.51825726,47.8112033 L3.19128631,47.5987552 C8.18381743,46.9879668 14.8759336,45.8726141 29.0568465,45.8726141 C47.6991701,45.8726141 62.0925311,47.7846473 62.2518672,47.8112033 L62.4112033,47.8112033 C62.7298755,47.8112033 63.0751037,47.7049793 63.3141079,47.4659751 C63.6062241,47.2004149 63.7655602,46.8286307 63.7655602,46.4302905 L63.7655602,1.39128631 C63.7655602,1.01950207 63.6062241,0.621161826 63.3141079,0.382157676 L63.3141079,0.382157676 Z M24.0377593,33.7630705 C24.0377593,34.506639 23.426971,35.1439834 22.6834025,35.1439834 C21.939834,35.1439834 21.3290456,34.533195 21.3290456,33.7630705 L21.3290456,27.2568465 C21.3290456,26.486722 21.939834,25.8759336 22.6834025,25.8759336 C23.426971,25.8759336 24.0377593,26.486722 24.0377593,27.2568465 L24.0377593,33.7630705 Z M30.1721992,33.7630705 C30.1721992,34.506639 29.5614108,35.1439834 28.8178423,35.1439834 C28.0742739,35.1439834 27.4634855,34.533195 27.4634855,33.7630705 L27.4634855,25.7697095 C27.4634855,24.9995851 28.0742739,24.3887967 28.8178423,24.3887967 C29.5614108,24.3887967 30.1721992,24.9995851 30.1721992,25.7697095 L30.1721992,33.7630705 Z M36.333195,33.7630705 C36.333195,34.533195 35.7224066,35.1439834 34.9788382,35.1439834 C34.2352697,35.1439834 33.6244813,34.533195 33.6244813,33.7630705 L33.6244813,23.8842324 C33.6244813,23.1141079 34.2352697,22.5033195 34.9788382,22.5033195 C35.7224066,22.5033195 36.333195,23.1141079 36.333195,23.8842324 L36.333195,33.7630705 Z M42.4676349,33.7630705 C42.4676349,34.506639 41.8568465,35.1439834 41.113278,35.1439834 C40.3697095,35.1439834 39.7589212,34.533195 39.7589212,33.7630705 L39.7589212,21.4676349 C39.7589212,20.6975104 40.3697095,20.086722 41.113278,20.086722 C41.8568465,20.086722 42.4676349,20.6975104 42.4676349,21.4676349 L42.4676349,33.7630705 Z M43.7688797,16.846888 L32.8543568,21.706639 C32.4029046,21.9190871 31.8717842,21.8394191 31.5,21.5207469 L28.313278,18.9713693 L21.0634855,21.9721992 C20.9041494,22.0253112 20.7448133,22.0518672 20.5589212,22.0518672 C20.0278008,22.0518672 19.5232365,21.733195 19.3107884,21.1755187 C19.0452282,20.4585062 19.3639004,19.6618257 20.0543568,19.3697095 L28.0211618,16.1033195 C28.4648446,15.9208675 28.9724424,15.9919312 29.3489627,16.2892116 L32.5091286,18.8120332 L40.0775934,15.4394191 L39.7058091,15.226971 C39.0419087,14.8817427 38.7763485,14.0319502 39.1215768,13.3680498 C39.466805,12.6775934 40.2900415,12.4120332 40.9539419,12.7838174 L43.8485477,14.3506224 C44.326556,14.5896266 44.5921162,15.0941909 44.5655602,15.6253112 C44.5655602,16.1564315 44.246888,16.6344398 43.7688797,16.846888 L43.7688797,16.846888 Z M61.0568465,44.8900415 C60.1008299,44.7838174 58.693361,44.6510373 56.9406639,44.4917012 L56.9406639,8.85352697 C53.3821577,9.25186722 42.9456432,10.473444 29.5348548,10.473444 C16.0975104,10.473444 10.4145228,9.25186722 6.8560166,8.85352697 L6.8560166,44.4120332 C5.31576763,44.5713693 3.9879668,44.7307054 2.89917012,44.8634855 L2.73983402,44.8900415 L2.73983402,2.93153527 L2.89917012,2.95809129 C7.94481328,3.56887967 14.7165975,4.71078838 29.0834025,4.71078838 C44.6452282,4.71078838 56.5157676,3.38298755 61.0834025,2.93153527 L61.0834025,44.8900415 L61.0568465,44.8900415 Z" id="形状"></path>
                    </g>
                    <text id="人工校准-(可选)" font-family="PingFangSC-Regular, PingFang SC" font-size="15" font-weight="normal" fill="#FFFFFF">
                        <tspan x="220" y="186">人工校准</tspan>
                        <tspan x="230.005" y="207">(可选)</tspan>
                    </text>
                    <g id="编组-6" transform="translate(20.000000, 252.000000)">
                        <rect id="矩形" fill="#008CB4" x="0" y="0" width="300" height="202" rx="8"></rect>
                        <text id="OCR" font-family="HiraKakuStdN-W8, Hiragino Kaku Gothic StdN" font-size="26" font-weight="600" fill="#FFFFFF">
                            <tspan x="50.863" y="73">OCR</tspan>
                        </text>
                        <text id="NLP" font-family="HiraKakuStdN-W8, Hiragino Kaku Gothic StdN" font-size="26" font-weight="600" fill="#FFFFFF">
                            <tspan x="53.801" y="146">NLP</tspan>
                        </text>
                    </g>
                    <g id="bingo-机器学习" transform="translate(205.000000, 307.000000)" fill="#FFFFFF" fill-rule="nonzero">
                        <path d="M31.1966664,7.00247477 L31.1966664,15.7554578 L31.1808952,15.7554578 L31.1808952,54.6076627 C30.8812436,56.7288811 29.532811,59.7805968 26.2129859,61.042288 C22.4909968,62.4301484 17.3732616,61.042288 15.3466701,59.0708955 C13.6985859,57.4701247 12.760203,55.3331351 12.5472926,53.1251755 C9.89774098,52.8018671 7.38224405,51.3824644 5.73415986,48.9142809 C3.90470755,46.1622169 3.67602601,42.6531381 4.99291625,39.7118204 C3.2817475,38.7182385 1.8465737,37.1726667 0.994932108,35.1460752 C-0.684694366,31.1796333 0.584882453,26.4561767 4.00721996,23.8539385 C4.20435922,23.7041127 4.41726962,23.570058 4.62229445,23.4281177 C4.40938405,23.0653815 4.19647365,22.671103 4.03087667,22.2610533 C2.3512502,18.2946114 3.62082702,13.5711548 7.04316453,10.9689166 C8.722791,9.68356867 10.6626413,9.06060862 12.5709493,8.99752405 C12.5867205,8.89501164 12.5867205,8.78461366 12.6024916,8.67421567 C13.1623671,4.40812214 16.6477892,0.985784626 20.9138827,0.473222557 C25.6688816,-0.0945385052 29.8324627,2.82312251 31.1966664,7.00247477 Z M20.8586837,3.28048558 C18.1539331,3.7536198 15.9380878,5.89849492 15.4097546,8.57958883 C15.3624412,8.82404151 15.3151278,9.07637976 15.2993566,9.32083244 C15.1889587,10.4090411 15.3466701,11.457822 15.7094063,12.3962049 C15.8592321,12.7747122 16.0406002,13.1532196 16.2535106,13.5001847 C16.6635603,14.1783437 16.4348788,15.0615276 15.7409486,15.4321494 C15.1022174,15.7791145 14.2900036,15.5819753 13.9114963,14.9826719 C13.3200785,14.0127468 12.8942577,12.9403092 12.6892329,11.7732448 C11.2067456,11.8205582 9.70848729,12.3331203 8.43891047,13.4055579 C6.34923434,15.1719256 5.52913503,18.1447856 6.42020448,20.7470238 C6.61734373,21.3068993 6.86968198,21.7879191 7.17721923,22.2610533 C7.81595042,23.2625207 8.65970644,24.0510778 9.64540273,24.5636398 L9.77945743,24.6582667 C10.3708752,25.0683163 10.5680145,25.8647589 10.1895071,26.5034901 C9.81099971,27.1185646 9.00667154,27.3787884 8.37582591,27.0318233 C7.66612458,26.653316 6.99585111,26.1644106 6.39654777,25.6045351 C6.06535381,25.8016744 5.73415986,26.0303559 5.42662262,26.2826942 C3.33694649,28.0490619 2.51684718,31.0219219 3.40791662,33.6241601 C3.99933439,35.3195577 5.13485652,36.581249 6.51483132,37.3619204 C6.5463736,37.3303781 6.57791588,37.2909503 6.60945816,37.2515224 C8.17080108,35.5088114 10.1658504,34.4994584 12.2555265,34.1682645 C12.9652278,34.0499809 13.6433869,34.5467718 13.8010983,35.2564732 C13.9666953,36.029259 13.4541332,36.7862738 12.6655762,36.9045574 C11.0648054,37.1647812 9.51923361,38.0085372 8.38371148,39.4673677 C6.68831387,41.628014 6.49117461,44.7033864 7.89480612,47.0454008 C9.01455711,48.9379376 10.8124671,50.0419175 12.7365463,50.3336836 C12.9336855,49.3479873 13.2806506,48.3780621 13.7932127,47.4869927 C14.9602771,45.4604011 16.7108737,44.048884 18.6822663,43.2918693 C19.3604253,43.0316455 20.1174401,43.3864961 20.4249773,44.048884 C20.7482857,44.7743565 20.3934351,45.610227 19.6521914,45.8941075 C18.1381619,46.4855253 16.8055006,47.6210474 15.9854013,49.2849027 C15.8513466,49.5687833 15.7251774,49.8605494 15.6384362,50.160201 C15.3387845,51.0906983 15.2441576,52.0763946 15.3624412,53.0542053 C15.5280382,54.4341801 16.1036848,55.7589559 17.07361,56.8077368 C18.7138086,58.5741045 22.3096286,59.5913431 25.1090061,58.4242787 C26.7018913,57.7618908 28.4524879,56.3503737 28.7284829,54.5918915 L28.7284829,18.3734671 C27.9872393,18.2394124 27.2775379,18.0107309 26.5836077,17.6716514 C24.4623893,16.6859551 22.908932,15.0694132 21.9784347,13.1768763 C21.6551263,12.522374 21.9311213,11.7417025 22.5698525,11.3710807 C23.2716682,10.9925733 24.1311954,11.2606827 24.4781605,11.9782696 C25.2036329,13.4292146 26.449553,14.6593635 28.1686074,15.3217514 C28.3499755,15.3927216 28.5471147,15.4242638 28.7284829,15.4873484 L28.7284829,8.35879286 C27.8689557,5.02319662 24.5885585,2.64175439 20.8586837,3.28048558 Z M49.3019358,50.4204249 C51.5098955,50.4204249 53.3156911,52.2262205 53.3156911,54.4341801 C53.3156911,56.6342542 51.5098955,58.4400498 49.3019358,58.4400498 C47.4567123,58.4400498 45.9111406,57.1862442 45.4458919,55.4750754 L35.1394515,55.4750754 L35.1394515,53.3853993 L45.4458919,53.3853993 C45.9190261,51.6742305 47.4409412,50.4204249 49.3019358,50.4204249 Z M56.4304913,39.5146811 C58.6463366,39.5146811 60.4442466,41.3125912 60.4442466,43.5284364 C60.4442466,45.7442817 58.638451,47.5343061 56.4226058,47.5343061 C54.5694967,47.5343061 53.0002683,46.2726149 52.5429052,44.5614461 L35.1315659,44.5614461 L35.1315659,42.4875411 L52.5507907,42.4875411 C53.0081538,40.7763724 54.5694967,39.5146811 56.4304913,39.5146811 Z M24.2652501,22.4976204 C24.762041,22.5922473 25.1326628,23.0574959 25.0538071,23.5542868 C24.8566678,25.0052318 24.1785088,26.43252 22.9799021,27.5364998 C22.2386585,28.2383156 21.3633602,28.7035642 20.4170918,29.0032159 C20.7404001,29.3817233 21.0242807,29.7917729 21.2608478,30.249136 C23.0272155,33.4112497 22.3963699,37.4880896 19.7783606,39.9799298 C19.549679,40.1928402 19.3052264,40.3899794 19.0686592,40.5871187 L19.0528881,40.5871187 C17.9015948,40.9813972 16.9474408,39.6487358 17.6886844,38.6788107 C17.9331371,38.4974426 18.1775898,38.3003033 18.3983858,38.0637362 C19.991271,36.3841097 20.3934351,33.8291849 19.4156243,31.7395088 C18.87152,30.5882155 18.027764,29.7444595 17.0420677,29.1766985 C16.8291573,29.0584149 16.6004757,28.9164746 16.3796798,28.8297334 C15.7646053,28.5695095 15.4728392,27.8598082 15.7646053,27.2526193 C15.8592321,27.05548 15.9932868,26.9214254 16.1588838,26.8031418 C16.4585355,26.5744603 16.8685851,26.5034901 17.2313214,26.6375448 C17.7202267,26.8346841 18.1697042,27.0791368 18.6112962,27.3630173 C19.6285347,27.3157039 20.6300022,26.9845099 21.4264448,26.322122 C22.4200266,25.5256794 22.9799021,24.4374707 23.1297279,23.3177197 C23.2006981,22.7736154 23.7211457,22.395108 24.2652501,22.4976204 Z M46.8810657,29.129385 C49.096911,29.129385 50.894821,30.9272951 50.894821,33.1431403 C50.894821,35.3589856 49.096911,37.1568956 46.8810657,37.1568956 C45.0279567,37.1568956 43.4587282,35.8952044 43.0013651,34.1840356 L35.1394515,34.1840356 L35.1394515,32.102245 L43.0013651,32.102245 C43.4587282,30.3910763 45.0200711,29.129385 46.8810657,29.129385 Z M56.4383769,18.578492 C58.6542222,18.578492 60.4521322,20.376402 60.4521322,22.5922473 C60.4521322,24.8080925 58.6542222,26.6060025 56.4383769,26.6060025 C54.5852679,26.6060025 53.0160394,25.3443113 52.5586763,23.6331425 L35.1394515,23.6331425 L35.1394515,21.551352 L52.5586763,21.551352 C53.0160394,19.8401832 54.5773823,18.578492 56.4383769,18.578492 Z M44.1920862,6.7028231 C46.4000459,6.7028231 48.2058415,8.50861869 48.2058415,10.7165784 C48.2058415,12.9245381 46.4000459,14.7303337 44.1842007,14.7303337 C42.3389772,14.7303337 40.7934054,13.476528 40.3281568,11.7653592 L35.1315659,11.7653592 C35.1394515,11.7653592 35.1394515,9.66779753 35.1394515,9.66779753 L40.3360423,9.66779753 C40.8091766,7.95662877 42.3310916,6.7028231 44.1920862,6.7028231 Z" id="形状结合"></path>
                    </g>
                    <text id="知识库推理" font-family="PingFangSC-Regular, PingFang SC" font-size="15" font-weight="normal" fill="#FFFFFF">
                        <tspan x="198.5" y="395">知识库推理</tspan>
                    </text>
                </g>
                <g id="编组-9" transform="translate(850.000000, 0.000000)">
                    <path d="M8,0 L362,0 C366.418278,-8.11624501e-16 370,3.581722 370,8 L370,187 C370,191.418278 366.418278,195 362,195 L8,195 C3.581722,195 5.41083001e-16,191.418278 0,187 L0,8 C-5.41083001e-16,3.581722 3.581722,8.11624501e-16 8,0 Z" id="矩形" fill="#00C78E"></path>
                    <text id="标-准-化-数-据" font-family="PingFangSC-Semibold, PingFang SC" font-size="18" font-weight="500" fill="#FFFFFF">
                        <tspan x="26" y="54">标</tspan>
                        <tspan x="26" y="79">准</tspan>
                        <tspan x="26" y="104">化</tspan>
                        <tspan x="26" y="129">数</tspan>
                        <tspan x="26" y="154">据</tspan>
                    </text>
                    <g id="编组-10" transform="translate(65.000000, 22.000000)">
                        <path d="M7.2,0 L267.3,0 C271.27645,-7.30462051e-16 274.5,3.2235498 274.5,7.2 L274.5,143.1 C274.5,147.07645 271.27645,150.3 267.3,150.3 L7.2,150.3 C3.2235498,150.3 4.83374289e-15,147.07645 0,143.1 L0,7.2 C-4.86974701e-16,3.2235498 3.2235498,3.39499731e-15 7.2,0 Z" id="矩形" fill="#FFFFFF"></path>
                        <text id="名称" font-family="PingFangSC-Semibold, PingFang SC" font-size="13.5" font-weight="500" fill="#333333">
                            <tspan x="20.7" y="25.7">名称</tspan>
                        </text>
                        <text id="来源" font-family="PingFangSC-Semibold, PingFang SC" font-size="13.5" font-weight="500" fill="#333333">
                            <tspan x="132.3" y="25.7">来源</tspan>
                        </text>
                        <text id="编码" font-family="PingFangSC-Semibold, PingFang SC" font-size="13.5" font-weight="500" fill="#333333">
                            <tspan x="204.3" y="25.7">编码</tspan>
                        </text>
                        <text id="风湿性二尖瓣-关闭不全-乙肝-肌酸磷酸激" font-family="PingFangSC-Regular, PingFang SC" font-size="12.6" font-weight="normal" line-spacing="18" fill="#333333">
                            <tspan x="20.7" y="54.4">风湿性二尖瓣</tspan>
                            <tspan x="20.7" y="72.4" line-spacing="27">关闭不全</tspan>
                            <tspan x="20.7" y="99.4" line-spacing="27">乙肝</tspan>
                            <tspan x="20.7" y="126.4" line-spacing="27">肌酸磷酸激酶</tspan>
                        </text>
                        <text id="ICD10-ICD10-LOINC" font-family="PingFangSC-Regular, PingFang SC" font-size="12.6" font-weight="normal" line-spacing="18" fill="#333333">
                            <tspan x="132.3" y="54.4">ICD10</tspan>
                            <tspan x="132.3" y="72.4" line-spacing="27"></tspan>
                            <tspan x="132.3" y="99.4" line-spacing="27">ICD10</tspan>
                            <tspan x="132.3" y="126.4" line-spacing="27">LOINC</tspan>
                        </text>
                        <text id="I05.1-B19.10-2157-6" font-family="PingFangSC-Regular, PingFang SC" font-size="12.6" font-weight="normal" line-spacing="18" fill="#333333">
                            <tspan x="204.3" y="54.4">I05.1</tspan>
                            <tspan x="204.3" y="72.4" line-spacing="27"></tspan>
                            <tspan x="204.3" y="99.4" line-spacing="27">B19.10</tspan>
                            <tspan x="204.3" y="126.4" line-spacing="27">2157-6</tspan>
                        </text>
                        <g id="编组-8" transform="translate(11.700000, 35.100000)" stroke="#333333" stroke-linecap="square">
                            <line x1="0.494117647" y1="0.45" x2="251.505882" y2="0.45" id="直线" stroke-width="1.8"></line>
                            <line x1="0.494117647" y1="47.25" x2="251.505882" y2="47.25" id="直线" stroke-width="0.9"></line>
                            <line x1="0.494117647" y1="74.25" x2="251.505882" y2="74.25" id="直线" stroke-width="0.9"></line>
                            <line x1="0.494117647" y1="101.25" x2="251.505882" y2="101.25" id="直线" stroke-width="0.9"></line>
                        </g>
                    </g>
                </g>
                <g id="编组-9" transform="translate(850.000000, 255.000000)">
                    <path d="M8,0 L362,0 C366.418278,-8.11624501e-16 370,3.581722 370,8 L370,207 C370,211.418278 366.418278,215 362,215 L8,215 C3.581722,215 5.41083001e-16,211.418278 0,207 L0,8 C-5.41083001e-16,3.581722 3.581722,8.11624501e-16 8,0 Z" id="矩形" fill="#00C78E"></path>
                    <text id="与-输-出-格-式-映-射" font-family="PingFangSC-Semibold, PingFang SC" font-size="18" font-weight="500" fill="#FFFFFF">
                        <tspan x="26" y="39">与</tspan>
                        <tspan x="26" y="64">输</tspan>
                        <tspan x="26" y="89">出</tspan>
                        <tspan x="26" y="114">格</tspan>
                        <tspan x="26" y="139">式</tspan>
                        <tspan x="26" y="164">映</tspan>
                        <tspan x="26" y="189">射</tspan>
                    </text>
                    <g id="编组-10" transform="translate(65.000000, 21.000000)">
                        <path d="M7.2,0 L267.3,0 C271.27645,-1.61864047e-15 274.5,3.2235498 274.5,7.2 L274.5,166.8 C274.5,170.77645 271.27645,174 267.3,174 L7.2,174 C3.2235498,174 -1.10593448e-14,170.77645 0,166.8 L0,7.2 C4.01203719e-16,3.2235498 3.2235498,-1.08158574e-14 7.2,0 Z" id="矩形" fill="#FFFFFF"></path>
                        <g id="编组-8" transform="translate(11.700000, 35.100000)" stroke="#333333" stroke-linecap="square">
                            <line x1="0.494117647" y1="0.45" x2="251.505882" y2="0.45" id="直线" stroke-width="1.8"></line>
                            <line x1="0.494117647" y1="28.35" x2="251.505882" y2="28.35" id="直线" stroke-width="0.9"></line>
                            <line x1="0.494117647" y1="56.35" x2="251.505882" y2="56.35" id="直线" stroke-width="0.9"></line>
                            <line x1="0.494117647" y1="129.25" x2="251.505882" y2="129.25" id="直线" stroke-width="0.9"></line>
                            <line x1="0.494117647" y1="102.25" x2="251.505882" y2="102.25" id="直线" stroke-width="0.9"></line>
                        </g>
                        <text id="表各项" font-family="PingFangSC-Semibold, PingFang SC" font-size="13.5" font-weight="500" fill="#333333">
                            <tspan x="20.7" y="25.7">表各项</tspan>
                        </text>
                        <text id="结果" font-family="PingFangSC-Semibold, PingFang SC" font-size="13.5" font-weight="500" fill="#333333">
                            <tspan x="204.3" y="25.7">结果</tspan>
                        </text>
                        <text id="乙肝病史-肌酸磷酸激酶异常-风湿性二尖瓣" font-family="PingFangSC-Regular, PingFang SC" font-size="12.6" font-weight="normal" line-spacing="27" fill="#333333">
                            <tspan x="20.7" y="45.4">乙肝病史</tspan>
                            <tspan x="20.7" y="72.4">肌酸磷酸激酶异常</tspan>
                            <tspan x="20.7" y="99.4" line-spacing="18">风湿性二尖瓣</tspan>
                            <tspan x="20.7" y="117.4">关闭不全</tspan>
                            <tspan x="20.7" y="144.4">...</tspan>
                        </text>
                        <text id="是-是-是-..." font-family="PingFangSC-Regular, PingFang SC" font-size="12.6" font-weight="normal" line-spacing="27" fill="#333333">
                            <tspan x="204.3" y="44.9">是</tspan>
                            <tspan x="204.3" y="71.9">是</tspan>
                            <tspan x="204.3" y="98.9" line-spacing="18">是</tspan>
                            <tspan x="204.3" y="116.9"></tspan>
                            <tspan x="204.3" y="143.9">...</tspan>
                        </text>
                    </g>
                </g>
                <g id="flow1">
                    <path d="M8,0 L332,0 C336.418278,-8.11624501e-16 340,3.581722 340,8 L340,462 C340,466.418278 336.418278,470 332,470 L8,470 C3.581722,470 5.41083001e-16,466.418278 0,462 L0,8 C-5.41083001e-16,3.581722 3.581722,8.11624501e-16 8,0 Z" id="矩形" fill="#00B2B0"></path>
                    <text id="病例内容" font-family="PingFangSC-Semibold, PingFang SC" font-size="18" font-weight="500" fill="#FFFFFF">
                        <tspan x="134" y="38">病例内容</tspan>
                    </text>
                    <g id="编组" transform="translate(20.000000, 62.000000)">
                        <path d="M8,0 L292,0 C296.418278,-8.11624501e-16 300,3.581722 300,8 L300,194 C300,198.418278 296.418278,202 292,202 L8,202 C3.581722,202 5.41083001e-16,198.418278 0,194 L0,8 C-5.41083001e-16,3.581722 3.581722,8.11624501e-16 8,0 Z" id="矩形" fill="#04A7A5"></path>
                        <text id="患者主因“反复气促1年余，加重1月”入院" font-family="PingFangSC-Regular, PingFang SC" font-size="14" font-weight="normal" line-spacing="21" fill="#FFFFFF">
                            <tspan x="20" y="36">患者主因“反复气促1年余，加重1月”入</tspan>
                            <tspan x="20" y="57">院；查体：双肺呼吸音清，心前区无隆</tspan>
                            <tspan x="20" y="78">起，心率：91次/分，律齐 ，心音低钝，</tspan>
                            <tspan x="20" y="99">各瓣膜区未闻及杂音及异常心音。患者于</tspan>
                            <tspan x="20" y="120">2016-03-13查心脏超声提示：风湿性二</tspan>
                            <tspan x="20" y="141">尖瓣关闭不全……患者有乙肝病史……实</tspan>
                            <tspan x="20" y="162">验室检查（2016-03-16）：……肌酸磷</tspan>
                            <tspan x="20" y="183">酸激酶 440U/L↑</tspan>
                        </text>
                    </g>
                    <g id="编组-4" transform="translate(20.000000, 279.000000)">
                        <path d="M8,0 L292,0 C296.418278,-8.11624501e-16 300,3.581722 300,8 L300,169 C300,173.418278 296.418278,177 292,177 L8,177 C3.581722,177 5.41083001e-16,173.418278 0,169 L0,8 C-5.41083001e-16,3.581722 3.581722,8.11624501e-16 8,0 Z" id="矩形" fill="#04A7A5"></path>
                        <text id="患者三日前查生化……肌酸激酶4507U/" font-family="PingFangSC-Regular, PingFang SC" font-size="14" font-weight="normal" line-spacing="21" fill="#FFFFFF">
                            <tspan x="20" y="36">患者三日前查生化……肌酸激酶4507U/</tspan>
                            <tspan x="20" y="57">L↑……患者于今日就诊于我院门诊，</tspan>
                            <tspan x="20" y="78">以“风湿性二尖瓣反流”收入我科，患者自</tspan>
                            <tspan x="20" y="99">患病以来，神清，胃纳可，大小便正常，</tspan>
                            <tspan x="20" y="120">体重无明显变化……既往史：乙型病毒性</tspan>
                            <tspan x="20" y="141">肝炎病史10余年；否认药物、食物过敏</tspan>
                            <tspan x="20" y="162">史。</tspan>
                        </text>
                    </g>
                </g>
                <g id="右边" transform="translate(366.000000, 223.000000)" fill-rule="nonzero">
                    <rect id="矩形" fill="#000000" opacity="0" x="7.26765287" y="-4.4408921e-14" width="24.7119155" height="24.7119155"></rect>
                    <path d="M1.1445303,5.41921607 L14.1059357,5.41921607 L14.1278053,1.15828163 C14.1314503,0.126763704 15.3816646,-0.387172778 16.1106525,0.341815143 L27.2860375,11.5427147 C27.7416549,11.9983321 27.73801,12.73461 27.2823925,13.1902274 L15.9976594,24.3729023 C15.2613816,25.1018902 14.0111673,24.5770189 14.0184572,23.541856 L14.0366819,19.4157843 L1.1445303,19.4157843 C0.510310816,19.4157843 5.71986902e-13,18.9018478 5.71986902e-13,18.2712733 L5.71986902e-13,6.56372713 C-0.00362566637,5.92950762 0.510310816,5.41921607 1.1445303,5.41921607 Z" id="路径" fill="#FFFFFF"></path>
                </g>
                <g id="右边" transform="translate(796.000000, 85.000000)" fill-rule="nonzero">
                    <rect id="矩形" fill="#000000" opacity="0" x="7.26765287" y="-4.4408921e-14" width="24.7119155" height="24.7119155"></rect>
                    <path d="M1.1445303,5.41921607 L14.1059357,5.41921607 L14.1278053,1.15828163 C14.1314503,0.126763704 15.3816646,-0.387172778 16.1106525,0.341815143 L27.2860375,11.5427147 C27.7416549,11.9983321 27.73801,12.73461 27.2823925,13.1902274 L15.9976594,24.3729023 C15.2613816,25.1018902 14.0111673,24.5770189 14.0184572,23.541856 L14.0366819,19.4157843 L1.1445303,19.4157843 C0.510310816,19.4157843 5.71986902e-13,18.9018478 5.71986902e-13,18.2712733 L5.71986902e-13,6.56372713 C-0.00362566637,5.92950762 0.510310816,5.41921607 1.1445303,5.41921607 Z" id="路径" fill="#FFFFFF"></path>
                </g>
                <g id="右边" transform="translate(1034.500000, 224.724673) rotate(91.000000) translate(-1034.500000, -224.724673) translate(1020.000000, 211.724673)" fill-rule="nonzero">
                    <rect id="矩形" fill="#000000" opacity="0" x="4.24247677" y="0.0751108489" width="24.7119155" height="24.7119155"></rect>
                    <path d="M1.1445303,6.41921607 L14.1059357,6.41921607 L14.1278053,2.15828163 C14.1314503,1.1267637 15.3816646,0.612827222 16.1106525,1.34181514 L27.2860375,12.5427147 C27.7416549,12.9983321 27.73801,13.73461 27.2823925,14.1902274 L15.9976594,25.3729023 C15.2613816,26.1018902 14.0111673,25.5770189 14.0184572,24.541856 L14.0366819,20.4157843 L1.1445303,20.4157843 C0.510310816,20.4157843 5.70210545e-13,19.9018478 5.70210545e-13,19.2712733 L5.70210545e-13,7.56372713 C-0.00362566637,6.92950762 0.510310816,6.41921607 1.1445303,6.41921607 Z" id="路径" fill="#FFFFFF"></path>
                </g>
            </g>
        </g>
    </g>
</svg>