<?xml version="1.0" encoding="UTF-8"?>
<svg width="72px" height="72px" viewBox="0 0 72 72" version="1.1" xmlns="http://www.w3.org/2000/svg" xmlns:xlink="http://www.w3.org/1999/xlink">
    <!-- Generator: Sketch 63 (92445) - https://sketch.com -->
    <title>编组 4</title>
    <desc>Created with Sketch.</desc>
    <g id="页面-1" stroke="none" stroke-width="1" fill="none" fill-rule="evenodd">
        <g id="4产品与展示" transform="translate(-1363.000000, -681.000000)">
            <g id="编组-2" transform="translate(342.000000, 622.000000)">
                <g id="编组-7" transform="translate(877.000000, 0.000000)">
                    <g id="编组-4" transform="translate(144.000000, 59.000000)">
                        <circle id="椭圆形" fill="#FFFFFF" cx="36" cy="36" r="36"></circle>
                        <g id="模型" transform="translate(21.000000, 21.000000)" fill="#009BC7" fill-rule="nonzero">
                            <path d="M1.07458212,10.0347929 L12.4815589,15.8080487 C13.1966751,16.1743278 14.0513263,16.3661882 14.9757449,16.3661882 C15.8478379,16.3661882 16.6850472,16.139444 17.469931,15.8080487 L28.8769077,10.0347929 C29.5222565,9.66851381 29.9408612,8.97083939 29.9408612,8.23828125 C29.9408612,7.45339753 29.5222565,6.80804869 28.8769077,6.44176962 L17.469931,0.668513808 C16.6850472,0.249909157 15.8129542,0.0231649709 14.9757449,0.0231649709 C14.1385356,0.0231649709 13.2664426,0.249909157 12.4815589,0.581304506 L1.07458212,6.38944404 C0.429233285,6.80804869 0.0106286337,7.45339753 0.0106286337,8.23828125 C-0.00681322674,8.97083939 0.429233285,9.66851381 1.07458212,10.0347929 Z M27.6908612,13.6801417 L16.4757449,19.8196766 C15.5513263,20.2382812 14.4873728,20.2382812 13.6152798,19.8196766 L2.27807049,13.6801417 C1.56295422,13.2615371 0.62109375,13.5406068 0.202489099,14.2382812 C-0.216115552,14.9359557 0.0629542151,15.895258 0.760628634,16.3138626 L12.1676054,22.4533975 C13.0396984,22.8720022 13.964117,23.0987464 14.9408612,23.0987464 C15.8652798,23.0987464 16.7896984,22.8720022 17.8013263,22.4533975 L29.2083031,16.3138626 C29.9234193,15.895258 30.1327217,14.9708394 29.714117,14.2382812 C29.3129542,13.523165 28.4234193,13.2266533 27.6908612,13.6801417 L27.6908612,13.6801417 Z M27.6908612,20.517351 L16.4757449,26.6568859 C15.5513263,27.0754906 14.4873728,27.0754906 13.6152798,26.6568859 L2.27807049,20.6045603 C1.56295422,20.1859557 0.62109375,20.4650254 0.202489099,21.1626999 C-0.216115552,21.8778161 0.0629542151,22.8196766 0.760628634,23.2382813 L12.1676054,29.3778161 C13.0396984,29.7964208 13.964117,30.023165 14.9408612,30.023165 C16.0048147,30.023165 16.9292333,29.7964208 17.8013263,29.3778161 L29.2083031,23.2382813 C29.9234193,22.8196766 30.1327217,21.895258 29.714117,21.1626999 C29.3478379,20.3778161 28.4234193,20.1510719 27.6908612,20.517351 L27.6908612,20.517351 Z" id="形状"></path>
                        </g>
                    </g>
                </g>
            </g>
        </g>
    </g>
</svg>