<?xml version="1.0" encoding="UTF-8"?>
<svg width="340px" height="284px" viewBox="0 0 340 284" version="1.1" xmlns="http://www.w3.org/2000/svg" xmlns:xlink="http://www.w3.org/1999/xlink">
    <!-- Generator: Sketch 63 (92445) - https://sketch.com -->
    <title>编组 3</title>
    <desc>Created with Sketch.</desc>
    <g id="页面-1" stroke="none" stroke-width="1" fill="none" fill-rule="evenodd">
        <g id="4产品与展示" transform="translate(-1186.000000, -118.000000)" fill-rule="nonzero">
            <g id="编组-3" transform="translate(1186.000000, 118.000000)">
                <g id="hologram-1" transform="translate(31.200000, 74.100000)">
                    <path d="M6.24839273,105.760823 C3.03924251,105.760823 0.42844163,103.166054 0.42844163,99.977207 L0.42844163,5.78312982 C0.42844163,2.59428304 3.03924251,0 6.24839273,0 L216.051118,0 C219.260268,0 221.871069,2.59428304 221.871069,5.78312982 L221.871069,99.9776936 C221.871069,103.16654 219.260268,105.760823 216.051118,105.760823 L6.24839273,105.760823 L6.24839273,105.760823 Z" id="Shape" fill="#7FE4F4"></path>
                    <path d="M182.778585,90.7235181 C174.573071,90.7235181 167.898196,84.0908725 167.898196,75.9372725 C167.898196,67.7836725 174.573071,61.1510269 182.778585,61.1510269 C190.9841,61.1510269 197.658975,67.7836725 197.658975,75.9372725 C197.658975,84.0908725 190.9841,90.7235181 182.778585,90.7235181 Z" id="Shape" fill="#4DD4E2"></path>
                    <path d="M15.5614896,45.4199018 L15.5614896,16.2317848 C15.5614896,15.2951766 16.3258295,14.5356725 17.2684011,14.5356725 L64.2966026,14.5356725 C65.2391742,14.5356725 66.0035141,15.2951766 66.0035141,16.2317848 L66.0035141,45.4194152 C66.0035141,46.3560234 65.2391742,47.1155277 64.2966026,47.1155277 L17.2684011,47.1155277 C16.3253399,47.116014 15.5614896,46.3565099 15.5614896,45.4199018 Z" id="Shape" fill="#4DD4E2"></path>
                    <path d="M15.5614896,87.5687298 L15.5614896,61.2974784 C15.5614896,59.5551439 16.9829366,58.1426901 18.7363645,58.1426901 L36.0953504,58.1426901 C37.8487784,58.1426901 39.2702253,59.5551439 39.2702253,61.2974784 L39.2702253,87.5687298 C39.2702253,89.3110643 37.8487784,90.7235181 36.0953504,90.7235181 L18.7363645,90.7235181 C16.9829366,90.7235181 15.5614896,89.3110643 15.5614896,87.5687298 Z" id="Shape" fill="#4DD4E2"></path>
                    <path d="M53.3931304,87.5687298 L53.3931304,72.8257871 C53.3931304,71.0834526 54.8145773,69.6709988 56.5680053,69.6709988 L124.369505,69.6709988 C126.122933,69.6709988 127.54438,71.0834526 127.54438,72.8257871 L127.54438,87.5687298 C127.54438,89.3110643 126.122933,90.7235181 124.369505,90.7235181 L56.5680053,90.7235181 C54.8145773,90.7235181 53.3931304,89.3110643 53.3931304,87.5687298 Z" id="Shape" fill="#4DD4E2"></path>
                    <path d="M82.6500628,55.9906807 L82.6500628,17.6904608 C82.6500628,15.9481263 84.0715097,14.5356725 85.8249377,14.5356725 L124.369505,14.5356725 C126.122933,14.5356725 127.54438,15.9481263 127.54438,17.6904608 L127.54438,55.9911673 C127.54438,57.7335018 126.122933,59.1459556 124.369505,59.1459556 L85.8249377,59.1459556 C84.0715097,59.145469 82.6500628,57.7330152 82.6500628,55.9906807 Z" id="Shape" fill="#4DD4E2"></path>
                    <path d="M208.50418,18.5458152 L147.972967,18.5458152 C145.883151,18.5458152 144.18995,16.8628398 144.18995,14.7867322 C144.18995,12.7106246 145.883151,11.0276491 147.972967,11.0276491 L208.50418,11.0276491 C210.593995,11.0276491 212.287197,12.7106246 212.287197,14.7867322 C212.287197,16.8628398 210.593995,18.5458152 208.50418,18.5458152 Z" id="Shape" fill="#4DD4E2"></path>
                    <path d="M187.822935,34.5849263 L147.973456,34.5849263 C145.883641,34.5849263 144.190439,32.9019509 144.190439,30.8258433 C144.190439,28.7497357 145.883641,27.0667602 147.973456,27.0667602 L187.822935,27.0667602 C189.912751,27.0667602 191.605952,28.7497357 191.605952,30.8258433 C191.605952,32.9019509 189.912751,34.5849263 187.822935,34.5849263 Z" id="Shape" fill="#4DD4E2"></path>
                    <path d="M208.50418,34.5849263 L198.920307,34.5849263 C196.830492,34.5849263 195.13729,32.9019509 195.13729,30.8258433 C195.13729,28.7497357 196.830492,27.0667602 198.920307,27.0667602 L208.50418,27.0667602 C210.593995,27.0667602 212.287197,28.7497357 212.287197,30.8258433 C212.287197,32.9019509 210.593995,34.5849263 208.50418,34.5849263 Z" id="Shape" fill="#4DD4E2"></path>
                    <path d="M208.50418,50.624524 L168.654701,50.624524 C166.564885,50.624524 164.871684,48.9415485 164.871684,46.8654409 C164.871684,44.7893333 166.564885,43.1063579 168.654701,43.1063579 L208.50418,43.1063579 C210.593995,43.1063579 212.287197,44.7893333 212.287197,46.8654409 C212.287197,48.9415485 210.593995,50.624524 208.50418,50.624524 Z" id="Shape" fill="#4DD4E2"></path>
                    <path d="M157.557328,50.624524 L147.973456,50.624524 C145.883641,50.624524 144.190439,48.9415485 144.190439,46.8654409 C144.190439,44.7893333 145.883641,43.1063579 147.973456,43.1063579 L157.557328,43.1063579 C159.647144,43.1063579 161.340346,44.7893333 161.340346,46.8654409 C161.340346,48.9415485 159.647144,50.624524 157.557328,50.624524 Z" id="Shape" fill="#4DD4E2"></path>
                </g>
                <g id="hourglass" transform="translate(23.400000, 192.100000)">
                    <path d="M188.356099,78.321775 L188.356099,61.637575 C188.356099,60.8405125 189.004631,60.1936 189.805873,60.1936 L206.557078,60.1936 C207.357342,60.1936 208.006852,60.8395375 208.006852,61.637575 L208.006852,78.321775 C208.006852,79.1188375 207.358321,79.76575 206.557078,79.76575 L189.805873,79.76575 C189.00512,79.764775 188.356099,79.1188375 188.356099,78.321775 Z" id="Shape" fill="#25D887"></path>
                    <path d="M127.813592,82.494775 L127.813592,66.49405 C127.813592,65.72965 128.436182,65.10955 129.203652,65.10955 L145.268637,65.10955 C146.036107,65.10955 146.658697,65.72965 146.658697,66.49405 L146.658697,82.494775 C146.658697,83.259175 146.036107,83.879275 145.268637,83.879275 L129.203652,83.879275 C128.435693,83.8787875 127.813592,83.259175 127.813592,82.494775 Z" id="Shape" fill="#25D887"></path>
                    <path d="M59.4187123,16.2605875 L59.4187123,1.292875 C59.4187123,0.5777125 60.0011672,-0.0024125 60.7192018,-0.0024125 L75.7475151,-0.0024125 C76.4655497,-0.0024125 77.0480045,0.5777125 77.0480045,1.292875 L77.0480045,16.261075 C77.0480045,16.9762375 76.4655497,17.5563625 75.7475151,17.5563625 L60.7192018,17.5563625 C60.0006777,17.555875 59.4187123,16.9762375 59.4187123,16.2605875 Z" id="Shape" fill="#25D887"></path>
                    <path d="M64.3240587,3.8897875 L59.4182229,3.8897875 L59.4182229,16.261075 C59.4182229,16.9762375 60.0006777,17.5563625 60.7187123,17.5563625 L71.1250753,17.5563625 L71.1250753,10.6636 C71.1250753,6.9278875 68.0742846,3.8897875 64.3240587,3.8897875 Z" id="Shape" fill="#00BA61"></path>
                    <path d="M42.1711973,30.9704125 L42.1711973,10.6631125 C42.1711973,9.6929875 42.9611822,8.9061625 43.9352033,8.9061625 L64.3240587,8.9061625 C65.2980798,8.9061625 66.0880648,9.6929875 66.0880648,10.6631125 L66.0880648,30.9704125 C66.0880648,31.9405375 65.2980798,32.7273625 64.3240587,32.7273625 L43.9352033,32.7273625 C42.9611822,32.7273625 42.1711973,31.9405375 42.1711973,30.9704125 Z" id="Shape" fill="#25D887"></path>
                    <path d="M0.992620482,42.3472 L0.992620482,27.379 C0.992620482,26.6638375 1.5750753,26.0837125 2.29310994,26.0837125 L17.3214232,26.0837125 C18.0394578,26.0837125 18.6219127,26.6638375 18.6219127,27.379 L18.6219127,42.3472 C18.6219127,43.0623625 18.0394578,43.6424875 17.3214232,43.6424875 L2.29262048,43.6424875 C1.57409639,43.6424875 0.992620482,43.0623625 0.992620482,42.3472 Z" id="Shape" fill="#25D887"></path>
                    <path d="M29.7017696,78.9682 L29.7017696,64 C29.7017696,63.2848375 30.2842244,62.7047125 31.002259,62.7047125 L46.0305723,62.7047125 C46.7486069,62.7047125 47.3310617,63.2848375 47.3310617,64 L47.3310617,78.9682 C47.3310617,79.6833625 46.7486069,80.2634875 46.0305723,80.2634875 L31.0017696,80.2634875 C30.2837349,80.2634875 29.7017696,79.6833625 29.7017696,78.9682 Z" id="Shape" fill="#25D887"></path>
                    <path d="M67.4776355,90.0047125 L67.4776355,75.0365125 C67.4776355,74.32135 68.0600904,73.741225 68.778125,73.741225 L83.8064383,73.741225 C84.5244729,73.741225 85.1069277,74.32135 85.1069277,75.0365125 L85.1069277,90.0047125 C85.1069277,90.719875 84.5244729,91.3 83.8064383,91.3 L68.778125,91.3 C68.0591114,91.3 67.4776355,90.719875 67.4776355,90.0047125 Z" id="Shape" fill="#25D887"></path>
                    <path d="M94.1721762,63.49105 L94.1721762,49.3784125 C94.1721762,48.7042 94.7213479,48.157225 95.3982681,48.157225 L109.567583,48.157225 C110.244503,48.157225 110.793675,48.7042 110.793675,49.3784125 L110.793675,63.49105 C110.793675,64.1652625 110.244503,64.7122375 109.567583,64.7122375 L95.3982681,64.7122375 C94.7208584,64.7122375 94.1721762,64.1652625 94.1721762,63.49105 Z" id="Shape" fill="#25D887"></path>
                    <path d="M95.3982681,48.157225 C94.7213479,48.157225 94.1721762,48.7042 94.1721762,49.3784125 L94.1721762,58.6921 L98.8998494,58.6921 C102.680911,58.6921 105.756664,55.62865 105.756664,51.8627125 L105.756664,48.157225 L95.3982681,48.157225 Z" id="Shape" fill="#00BA61"></path>
                    <path d="M145.04006,52.0421125 L145.04006,30.2264875 C145.04006,29.1842125 145.88878,28.3388875 146.935241,28.3388875 L168.838479,28.3388875 C169.88494,28.3388875 170.73366,29.1842125 170.73366,30.2264875 L170.73366,52.0421125 C170.73366,53.0843875 169.88494,53.9297125 168.838479,53.9297125 L146.935241,53.9297125 C145.88878,53.929225 145.04006,53.0843875 145.04006,52.0421125 Z" id="Shape" fill="#25D887"></path>
                    <path d="M146.935241,28.3384 C145.88878,28.3384 145.04006,29.183725 145.04006,30.226 L145.04006,47.1598 L155.239383,47.1598 C159.061559,47.1598 162.171574,44.0627125 162.171574,40.2553375 L162.171574,28.3379125 L146.935241,28.3379125 L146.935241,28.3384 Z" id="Shape" fill="#00BA61"></path>
                    <path d="M191.427937,26.5341625 L191.427937,9.0787375 C191.427937,8.244625 192.106815,7.56895 192.943788,7.56895 L210.469315,7.56895 C211.306777,7.56895 211.985166,8.2451125 211.985166,9.0787375 L211.985166,26.5341625 C211.985166,27.368275 211.306288,28.0439503 210.469315,28.0439503 L192.943788,28.0439503 C192.106815,28.0444375 191.427937,27.368275 191.427937,26.5341625 Z" id="Shape" fill="#25D887"></path>
                    <path d="M203.497967,12.5395 C199.594051,12.5395 196.417959,15.7028875 196.417959,19.5911875 L196.417959,28.0444375 L210.468825,28.0444375 C211.306288,28.0444375 211.984676,27.368275 211.984676,26.53465 L211.984676,12.5399875 L203.497967,12.5399875 L203.497967,12.5395 Z" id="Shape" fill="#00BA61"></path>
                    <path d="M76.0402108,51.8627125 L76.0402108,30.907525 C76.0402108,29.9062 76.8551581,29.0945125 77.8605045,29.0945125 L98.8998494,29.0945125 C99.9051958,29.0945125 100.720143,29.9062 100.720143,30.907525 L100.720143,51.8627125 C100.720143,52.8640375 99.9051958,53.675725 98.8998494,53.675725 L77.8605045,53.675725 C76.8551581,53.675725 76.0402108,52.86355 76.0402108,51.8627125 Z" id="Shape" fill="#25D887"></path>
                    <path d="M131.440964,40.2563125 L131.440964,18.4402 C131.440964,17.397925 132.289684,16.5526 133.336145,16.5526 L155.239383,16.5526 C156.285843,16.5526 157.134563,17.397925 157.134563,18.4402 L157.134563,40.255825 C157.134563,41.2981 156.285843,42.143425 155.239383,42.143425 L133.336145,42.143425 C132.289684,42.143425 131.440964,41.2985875 131.440964,40.2563125 Z" id="Shape" fill="#25D887"></path>
                    <path d="M201.45497,43.1120875 L201.45497,19.5907 C201.45497,18.4670125 202.369767,17.5553875 203.498456,17.5553875 L227.114307,17.5553875 C228.242508,17.5553875 229.157794,18.466525 229.157794,19.5907 L229.157794,43.1120875 C229.157794,44.235775 228.242997,45.1474 227.114307,45.1474 L203.498456,45.1474 C202.369767,45.1474 201.45497,44.2362625 201.45497,43.1120875 Z" id="Shape" fill="#25D887"></path>
                </g>
                <polygon id="Shape" fill="#25D887" points="5.014425 61.6419749 0 52.9209874 5.014425 44.2 15.042625 44.2 20.05705 52.9209874 15.042625 61.6419749"></polygon>
                <polygon id="Shape" fill="#25D887" points="5.014425 78.0477573 0 69.3267699 5.014425 60.6054561 15.042625 60.6054561 20.05705 69.3267699 15.042625 78.0477573"></polygon>
                <polygon id="Shape" fill="#25D887" points="309.214425 140.941975 304.2 132.220987 309.214425 123.5 319.242625 123.5 324.25705 132.220987 319.242625 140.941975"></polygon>
                <polygon id="Shape" fill="#25D887" points="324.21805 148.642762 319.203625 139.921448 324.21805 131.20046 334.246575 131.20046 339.260675 139.921448 334.246575 148.642762"></polygon>
                <polygon id="Shape" fill="#25D887" points="309.214425 157.347757 304.2 148.62677 309.214425 139.905456 319.242625 139.905456 324.25705 148.62677 319.242625 157.347757"></polygon>
                <polygon id="Shape" fill="#0ABF68" points="312.521625 137.928695 307.5072 129.207707 310.78905 123.5 309.214425 123.5 304.2 132.220987 309.214425 140.941975 319.242625 140.941975 320.9752 137.928695"></polygon>
                <polygon id="Shape" fill="#0ABF68" points="327.52525 145.629481 322.510825 136.908167 325.792675 131.20046 324.21805 131.20046 319.203625 139.921448 324.21805 148.642762 334.246575 148.642762 335.978825 145.629481"></polygon>
                <polygon id="Shape" fill="#0ABF68" points="312.521625 154.334477 307.5072 145.61349 310.78905 139.905456 309.214425 139.905456 304.2 148.62677 309.214425 157.347757 319.242625 157.347757 320.9752 154.334477"></polygon>
                <polygon id="Shape" fill="#25D887" points="200.014425 17.4419749 195 8.72098745 200.014425 0 210.042625 0 215.05705 8.72098745 210.042625 17.4419749"></polygon>
                <polygon id="Shape" fill="#25D887" points="215.01805 25.1427615 210.003625 16.4214477 215.01805 7.70046025 225.046575 7.70046025 230.060675 16.4214477 225.046575 25.1427615"></polygon>
                <polygon id="Shape" fill="#25D887" points="200.014425 33.8477573 195 25.1267699 200.014425 16.4054561 210.042625 16.4054561 215.05705 25.1267699 210.042625 33.8477573"></polygon>
                <polygon id="Shape" fill="#0ABF68" points="203.321625 14.4286946 198.3072 5.70770711 201.58905 -1.02762243e-13 200.014425 -1.02762243e-13 195 8.72098745 200.014425 17.4419749 210.042625 17.4419749 211.7752 14.4286946"></polygon>
                <polygon id="Shape" fill="#0ABF68" points="218.32525 22.1294812 213.310825 13.4081674 216.592675 7.70046025 215.01805 7.70046025 210.003625 16.4214477 215.01805 25.1427615 225.046575 25.1427615 226.778825 22.1294812"></polygon>
                <polygon id="Shape" fill="#0ABF68" points="203.321625 30.834477 198.3072 22.1134895 201.58905 16.4054561 200.014425 16.4054561 195 25.1267699 200.014425 33.8477573 210.042625 33.8477573 211.7752 30.834477"></polygon>
                <polygon id="Shape" fill="#25D887" points="20.01805 69.3427615 15.003625 60.6214477 20.01805 51.9004603 30.046575 51.9004603 35.060675 60.6214477 30.046575 69.3427615"></polygon>
                <polygon id="Shape" fill="#0ABF68" points="8.321625 58.6286946 3.3072 49.9077071 6.58905 44.2 5.014425 44.2 0 52.9209874 5.014425 61.6419749 15.042625 61.6419749 16.7752 58.6286946"></polygon>
                <polygon id="Shape" fill="#0ABF68" points="23.32525 66.3294812 18.310825 57.6081674 21.592675 51.9004603 20.01805 51.9004603 15.003625 60.6214477 20.01805 69.3427615 30.046575 69.3427615 31.778825 66.3294812"></polygon>
                <polygon id="Shape" fill="#0ABF68" points="8.321625 75.034477 3.3072 66.3134895 6.58905 60.6054561 5.014425 60.6054561 0 69.3267699 5.014425 78.0477573 15.042625 78.0477573 16.7752 75.034477"></polygon>
            </g>
        </g>
    </g>
</svg>