<?xml version="1.0" encoding="UTF-8"?>
<svg width="72px" height="72px" viewBox="0 0 72 72" version="1.1" xmlns="http://www.w3.org/2000/svg" xmlns:xlink="http://www.w3.org/1999/xlink">
    <!-- Generator: Sketch 63 (92445) - https://sketch.com -->
    <title>编组 5</title>
    <desc>Created with Sketch.</desc>
    <g id="页面-1" stroke="none" stroke-width="1" fill="none" fill-rule="evenodd">
        <g id="解决方案1" transform="translate(-1121.000000, -1549.000000)">
            <g id="编组-2" transform="translate(529.000000, 1284.000000)">
                <g id="编码归一/场景2hang" transform="translate(560.000000, 231.000000)">
                    <g id="编码归一/场景">
                        <g id="编组-8">
                            <g id="编组-5" transform="translate(32.000000, 34.000000)">
                                <circle id="椭圆形" fill="#00B2B0" cx="36" cy="36" r="36"></circle>
                                <g id="智能审核备份" transform="translate(20.000000, 21.000000)" fill="#FFFFFF" fill-rule="nonzero">
                                    <path d="M23.4020619,0 L2.4005891,0 C1.19924258,0 0,0.99936882 0,2.39848517 L0,27.4016411 C0,28.6008837 0.99936882,29.8022302 2.39848517,29.8022302 L20.4018515,29.8022302 C19.6023564,29.0027351 19.0006312,28.2032401 18.6008837,27.2017673 C18.1917656,26.1858366 17.9879687,25.09892 18.0012624,24.0037871 C18.0012624,22.8024406 18.2011361,21.8009678 18.6008837,20.801599 C19.0006312,19.6023564 19.6023564,18.6008837 20.1998738,18.0033663 C21.0014728,17.2017673 21.8009678,16.602146 22.8024406,16.2023985 C23.8018094,15.802651 24.8011782,15.6006733 25.802651,15.6006733 L25.802651,2.4005891 C25.802651,0.99936882 24.8011782,0 23.4020619,0 Z M5.80054702,6.00042079 L11.8009678,6.00042079 C12.4005891,6.00042079 13.0002104,6.60004208 13.0002104,7.19966337 C13.0002104,7.8013886 12.4005891,8.39890595 11.8009678,8.39890595 L5.80054702,8.39890595 C5.20092573,8.39890595 4.60130444,7.8013886 4.60130444,7.19966337 C4.60130444,6.60004208 5.20092573,6.00042079 5.80054702,6.00042079 Z M14.2015569,22.2007153 L5.80054702,22.2007153 C5.20092573,22.2007153 4.60130444,21.601094 4.60130444,21.0014728 C4.60130444,20.4018515 5.20092573,19.8022302 5.80054702,19.8022302 L14.2015569,19.8022302 C14.8011782,19.8022302 15.4007995,20.4018515 15.4007995,21.0014728 C15.4007995,21.601094 14.8011782,22.2007153 14.2015569,22.2007153 Z M20.0021039,15.2009257 L5.80054702,15.2009257 C5.20092573,15.2009257 4.60130444,14.8011782 4.60130444,14.0016831 C4.60130444,13.4020619 5.20092573,12.8024406 5.80054702,12.8024406 L20.0021039,12.8024406 C20.6017252,12.8024406 21.2013465,13.4020619 21.2013465,14.0016831 C21.2013465,14.8011782 20.801599,15.2009257 20.0021039,15.2009257 Z" id="形状"></path>
                                    <path d="M25.7879234,16.8314749 C22.0043462,16.8337961 18.9377304,19.9004119 18.9354092,23.6839891 C18.9388906,27.4667446 22.005167,30.5320795 25.7879234,30.5343993 C29.5698582,30.5309196 32.6348539,27.4659239 32.6383337,23.6839891 C32.8739743,19.903219 29.8043341,16.8314749 25.7879234,16.8314749 Z M30.2756154,22.9749632 L25.5501788,27.4626552 C25.3145382,27.7003997 25.0788975,27.7003997 24.841153,27.7003997 C24.6055123,27.7003997 24.3698717,27.7003997 24.1321271,27.4626552 L21.5337681,24.8642962 C21.0624869,24.390911 21.0624869,23.6839891 21.5337681,23.4462445 C22.0071534,22.9749632 22.7161793,22.9749632 22.9518199,23.4462445 L24.841153,25.3376815 L28.8596676,21.5569114 C29.3309489,21.0835262 30.0378708,21.0835262 30.2756154,21.5569114 C30.7490006,21.7925521 30.7490006,22.501578 30.2756154,22.9749632 L30.2756154,22.9749632 Z" id="形状"></path>
                                </g>
                            </g>
                        </g>
                    </g>
                </g>
            </g>
        </g>
    </g>
</svg>