<?xml version="1.0" encoding="UTF-8"?>
<svg width="192px" height="58px" viewBox="0 0 192 58" version="1.1" xmlns="http://www.w3.org/2000/svg" xmlns:xlink="http://www.w3.org/1999/xlink">
    <!-- Generator: Sketch 63 (92445) - https://sketch.com -->
    <title>路径 2</title>
    <desc>Created with Sketch.</desc>
    <g id="页面-1" stroke="none" stroke-width="1" fill="none" fill-rule="evenodd">
        <g id="2产品与展示" transform="translate(-511.000000, -650.000000)" fill="#F2FF00" fill-rule="nonzero">
            <g id="编组" transform="translate(0.000000, 80.000000)">
                <path id="路径-2" d="M546.280843,624.294604 C547.271234,624.337836 548.254957,624.362544 549.232019,624.368735 L550.206861,624.368754 L550.225837,627.368694 C549.215577,627.375085 548.198792,627.362252 547.175489,627.330203 L546.150013,627.29175 L546.280843,624.294604 Z M558.016395,623.905429 L558.357258,626.886001 C557.350027,627.00119 556.335776,627.095824 555.314518,627.169911 L554.290924,627.237149 L554.114642,624.242332 C555.427759,624.165039 556.728333,624.052733 558.016395,623.905429 Z M538.433394,623.583356 C539.418235,623.717338 540.396904,623.834202 541.369406,623.933955 L542.339852,624.028005 L542.067293,627.015598 C541.065683,626.92422 540.058097,626.815193 539.044537,626.688523 L538.028987,626.555973 L538.433394,623.583356 Z M565.737175,622.568538 L566.421664,625.489406 C565.429745,625.721857 564.430391,625.932759 563.42362,626.122115 L562.414377,626.304288 L561.903075,623.34818 C563.194082,623.124882 564.472102,622.865 565.737175,622.568538 Z M530.682225,622.203237 C531.548343,622.392708 532.409983,622.569745 533.267145,622.73435 L534.54953,622.971936 L534.022458,625.925272 C533.144188,625.76853 532.261602,625.599045 531.3747,625.416822 L530.041109,625.133932 L530.682225,622.203237 Z M573.24837,620.323101 L574.280243,623.140056 C573.320088,623.491768 572.352276,623.821562 571.376823,624.129431 L570.398823,624.429992 L569.539229,621.55578 C570.788645,621.182115 572.025012,620.771226 573.24837,620.323101 Z M523.027001,620.238958 C523.879749,620.489101 524.728412,620.727874 525.572989,620.95528 L526.83679,621.287863 L526.089949,624.193415 C525.227544,623.971743 524.361204,623.73848 523.490931,623.493629 L522.182569,623.117662 L523.027001,620.238958 Z M515.508889,617.777163 C516.345123,618.078749 517.177647,618.369979 518.006459,618.650854 L519.246893,619.064402 L518.312252,621.915094 C517.468476,621.63845 516.621124,621.351293 515.770192,621.053625 L514.491111,620.599242 L515.508889,617.777163 Z M580.44367,617.18183 L581.806538,619.854393 C580.892548,620.32048 579.970902,620.764927 579.041615,621.187723 L578.109781,621.603302 L576.908387,618.854366 C578.09957,618.333771 579.277987,617.776267 580.44367,617.18183 Z M587.148352,613.262692 L588.805167,615.763684 C587.94827,616.331347 587.083957,616.878248 586.212236,617.404375 L585.338045,617.923577 L583.824466,615.333389 C584.944619,614.678826 586.052575,613.988603 587.148352,613.262692 Z M593.453491,608.580983 L595.364356,610.893686 C594.571736,611.548586 593.772128,612.184038 592.965534,612.800031 L592.156611,613.409539 L590.36692,611.001841 C591.407209,610.228573 592.436065,609.421628 593.453491,608.580983 Z M599.297534,603.262188 L601.388273,605.413655 C601.249597,605.548416 601.111967,605.683176 600.970299,605.822921 C600.416273,606.36934 599.85852,606.905411 599.297039,607.43113 L598.452022,608.211944 L596.430698,605.995133 C597.249429,605.248601 598.060428,604.479223 598.86361,603.687069 C599.010495,603.542178 599.153469,603.402187 599.297534,603.262188 Z M605.426964,597.887951 L607.286084,600.242451 C606.516157,600.850388 605.758077,601.473152 605.011837,602.110753 L604.269543,602.753298 L602.291545,600.497744 C603.314768,599.600433 604.359914,598.730496 605.426964,597.887951 Z M612.085266,593.16576 L613.693288,595.6984 C612.863373,596.225329 612.045259,596.766938 611.238937,597.323232 L610.436545,597.88442 L608.70146,595.437079 C609.807743,594.65276 610.935686,593.895651 612.085266,593.16576 Z M619.169634,589.149636 L620.518981,591.82905 C619.637743,592.27284 618.768058,592.730926 617.909916,593.203311 L617.055622,593.680462 L615.576592,591.070391 C616.753273,590.403609 617.950961,589.763357 619.169634,589.149636 Z M689.165131,570.708949 L703.88784,581.674433 L706.026499,583.267307 L703.554649,584.267844 L686.53823,591.15562 L685.412626,588.374789 L697.12,583.635 L694.045412,583.240357 L694.427697,580.264814 L697.503,580.659 L687.373147,573.11494 L689.165131,570.708949 Z M626.624062,585.828363 L627.716973,588.622203 C626.897912,588.942608 626.08761,589.273815 625.286064,589.615821 L624.090309,590.136931 L622.870584,587.396078 C624.101774,586.848179 625.352939,586.325608 626.624062,585.828363 Z M634.298771,583.205065 L635.148389,586.082243 C634.302036,586.332167 633.463982,586.592305 632.634225,586.862653 L631.39581,587.275834 L630.426194,584.436848 C631.698276,584.002386 632.98914,583.591794 634.298771,583.205065 Z M642.17734,581.214184 L642.800524,584.148744 C641.935353,584.332472 641.077948,584.525749 640.228305,584.728574 L638.959664,585.039971 L638.225876,582.131096 C639.525566,581.803238 640.842723,581.497603 642.17734,581.214184 Z M650.175638,579.810705 L650.592693,582.781575 C649.714828,582.90481 648.844182,583.036928 647.980756,583.177926 L646.691031,583.396083 L646.173752,580.441016 C647.491543,580.210339 648.825506,580.000238 650.175638,579.810705 Z M698.33,581.275 L698.077,583.248 L699.957,582.487 L698.33,581.275 Z M686.43371,579.273125 C686.672553,579.294646 686.911751,579.316616 687.172254,579.341374 L687.440635,579.367146 L690.460306,579.7551 L690.078021,582.730644 L687.108008,582.34823 L686.635768,582.304034 L686.635768,582.304034 L686.164483,582.26102 L686.43371,579.273125 Z M658.241097,578.937838 L658.472913,581.928869 C657.587757,581.997471 656.709283,582.074302 655.83749,582.159358 L654.534812,582.293111 L654.213199,579.3104 C655.540905,579.167239 656.883538,579.043054 658.241097,578.937838 Z M678.384922,578.711338 C679.271389,578.754573 680.163093,578.804441 681.060035,578.860942 L682.409376,578.950666 L682.199956,581.943348 C681.311763,581.881194 680.428857,581.825577 679.551238,581.776496 L678.238777,581.707776 L678.384922,578.711338 Z M666.338068,578.539001 L666.404582,581.538263 C665.515831,581.557973 664.633256,581.585297 663.756856,581.620232 L662.446888,581.678345 L662.300384,578.681925 C663.632503,578.616794 664.978398,578.569154 666.338068,578.539001 Z M670.334473,578.500611 C671.222673,578.503027 672.11653,578.512619 673.016046,578.529384 L674.369563,578.559912 L674.290251,581.558864 C673.400808,581.535341 672.517077,581.518869 671.639057,581.509447 L670.32631,581.500599 L670.334473,578.500611 Z"></path>
            </g>
        </g>
    </g>
</svg>