<?xml version="1.0" encoding="UTF-8"?>
<svg width="100px" height="100px" viewBox="0 0 100 100" version="1.1" xmlns="http://www.w3.org/2000/svg" xmlns:xlink="http://www.w3.org/1999/xlink">
    <!-- Generator: Sketch 63 (92445) - https://sketch.com -->
    <title>项目 (1)</title>
    <desc>Created with Sketch.</desc>
    <g id="页面-1" stroke="none" stroke-width="1" fill="none" fill-rule="evenodd">
        <g id="首页" transform="translate(-1430.000000, -1289.000000)" fill="#009291" fill-rule="nonzero">
            <g id="1" transform="translate(240.000000, 755.000000)">
                <g id="项目-(1)" transform="translate(1190.000000, 534.000000)">
                    <path d="M27.5,32.1205357 L72.3214286,32.1205357 L72.3214286,22.1205357 L27.5,22.1205357 L27.5,32.1205357 Z M69.7321429,7.29910714 C68.2142857,7.29910714 66.9642857,8.54910714 66.9642857,10.0669643 C66.9642857,11.5848214 68.2142857,12.8348214 69.7321429,12.8348214 C71.25,12.8348214 72.5,11.5848214 72.5,10.0669643 C72.5,8.54910714 71.25,7.29910714 69.7321429,7.29910714 Z M61.7857143,7.29910714 C60.2678571,7.29910714 59.0178571,8.54910714 59.0178571,10.0669643 C59.0178571,11.5848214 60.2678571,12.8348214 61.7857143,12.8348214 C63.3035714,12.8348214 64.5535714,11.5848214 64.5535714,10.0669643 C64.5535714,8.54910714 63.3928571,7.29910714 61.7857143,7.29910714 L61.7857143,7.29910714 Z M93.5714286,57.8348214 L99.6428571,29.0848214 C100.267857,26.0491071 98.3928571,23.1026786 95.3571429,22.4776786 L82.1428571,19.7098214 L82.1428571,5.60267857 C82.1428571,2.56696429 79.6428571,0.0669642857 76.6071429,0.0669642857 L23.2142857,0.0669642857 C20.1785714,0.0669642857 17.6785714,2.56696429 17.6785714,5.60267857 L17.6785714,9.44196429 L4.46428571,12.2098214 C1.42857143,12.8348214 -0.446428571,15.78125 0.178571429,18.8169643 L8.39285714,57.4776786 C3.75,57.7455357 -1.58603289e-15,61.6741071 -1.58603289e-15,66.3169643 L-1.58603289e-15,90.8705357 C-1.58603289e-15,95.78125 4.01785714,99.7991071 8.92857143,99.7991071 L90.8928571,99.7991071 C95.8035714,99.7991071 99.8214286,95.78125 99.8214286,90.8705357 L99.8214286,66.3169643 C99.8214286,62.3883929 97.1428571,58.9955357 93.5714286,57.8348214 Z M23.2142857,5.60267857 L76.6071429,5.60267857 L76.6071429,14.53125 L23.2142857,14.53125 L23.2142857,5.60267857 Z M5.625,17.65625 L17.6785714,15.0669643 L17.6785714,28.1919643 L11.25,29.53125 C10.9821429,29.6205357 10.7142857,29.8883929 10.8035714,30.15625 L11.6964286,34.53125 C11.7857143,34.7991071 12.0535714,35.0669643 12.3214286,34.9776786 L17.5892857,33.8169643 L17.5892857,39.7098214 L13.4821429,40.6026786 C13.2142857,40.6919643 13.0357143,40.9598214 13.0357143,41.2276786 L13.9285714,45.6026786 C14.0178571,45.8705357 14.2857143,46.0491071 14.5535714,46.0491071 L17.5,45.4241071 L17.5,57.3883929 L13.9285714,57.3883929 L5.625,17.65625 Z M22.5,74.0848214 L17.7678571,74.0848214 C15.9821429,74.0848214 14.5535714,72.65625 14.5535714,70.8705357 C14.5535714,69.0848214 15.9821429,67.65625 17.7678571,67.65625 L22.5,67.65625 C24.2857143,67.65625 25.7142857,69.0848214 25.7142857,70.8705357 C25.7142857,72.5669643 24.2857143,74.0848214 22.5,74.0848214 Z M72.3214286,57.4776786 L72.3214286,35.5133929 L44.2857143,35.5133929 L44.2857143,67.65625 C42.9464286,66.7633929 41.7857143,65.6026786 40.8035714,64.2633929 L40.8035714,35.5133929 L27.4107143,35.5133929 L27.4107143,57.4776786 L23.2142857,57.4776786 L23.2142857,18.3705357 L76.6071429,18.3705357 L76.6071429,57.3883929 L72.3214286,57.3883929 L72.3214286,57.4776786 Z M87.9464286,57.4776786 L82.2321429,57.4776786 L82.2321429,50.15625 L85.1785714,50.78125 C85.4464286,50.8705357 85.8035714,50.6919643 85.8035714,50.3348214 L87.0535714,44.3526786 C87.1428571,44.0848214 86.9642857,43.7276786 86.6071429,43.7276786 L82.1428571,42.7455357 L82.1428571,38.4598214 L87.8571429,39.7098214 C88.125,39.7991071 88.4821429,39.53125 88.4821429,39.2633929 L89.0178571,36.7633929 C89.1071429,36.4955357 88.8392857,36.1383929 88.5714286,36.1383929 L82.1428571,34.7991071 L82.1428571,25.3348214 L94.1964286,27.9241071 L87.9464286,57.4776786 Z" id="形状"></path>
                </g>
            </g>
        </g>
    </g>
</svg>